<svg width="25" height="25" viewBox="0 0 25 25" fill="none" xmlns="http://www.w3.org/2000/svg">
<g clip-path="url(#clip0_388_893)">
<mask id="path-1-inside-1_388_893" fill="white">
<path d="M25 12.4875C25 5.59375 19.4 0 12.5 0C5.6 0 0 5.59375 0 12.4875C0 16.2844 1.725 19.7062 4.425 22.0031C4.45 22.0281 4.475 22.0281 4.475 22.0531C4.7 22.2281 4.925 22.4031 5.175 22.5781C5.3 22.6531 5.4 22.7516 5.525 22.8516C7.59073 24.2521 10.0292 25.0006 12.525 25C15.0208 25.0006 17.4593 24.2521 19.525 22.8516C19.65 22.7766 19.75 22.6781 19.875 22.6016C20.1 22.4281 20.35 22.2531 20.575 22.0781C20.6 22.0531 20.625 22.0531 20.625 22.0281C23.275 19.7047 25 16.2844 25 12.4875ZM12.5 23.4266C10.15 23.4266 8 22.6766 6.225 21.4281C6.25 21.2281 6.3 21.0297 6.35 20.8297C6.49897 20.2877 6.71745 19.7672 7 19.2812C7.275 18.8062 7.6 18.3813 8 18.0063C8.375 17.6313 8.825 17.2828 9.275 17.0078C9.75 16.7328 10.25 16.5328 10.8 16.3828C11.3543 16.2334 11.9259 16.1583 12.5 16.1594C14.2041 16.1473 15.8457 16.801 17.075 17.9813C17.65 18.5563 18.1 19.2313 18.425 20.0047C18.6 20.4547 18.725 20.9297 18.8 21.4281C16.955 22.7252 14.7554 23.423 12.5 23.4266ZM8.675 11.8641C8.45472 11.3597 8.34395 10.8144 8.35 10.2641C8.35 9.71562 8.45 9.16562 8.675 8.66562C8.9 8.16562 9.2 7.71719 9.575 7.34219C9.95 6.96719 10.4 6.66875 10.9 6.44375C11.4 6.21875 11.95 6.11875 12.5 6.11875C13.075 6.11875 13.6 6.21875 14.1 6.44375C14.6 6.66875 15.05 6.96875 15.425 7.34219C15.8 7.71719 16.1 8.16719 16.325 8.66562C16.55 9.16562 16.65 9.71562 16.65 10.2641C16.65 10.8391 16.55 11.3641 16.325 11.8625C16.1079 12.3551 15.8029 12.8041 15.425 13.1875C15.0415 13.5648 14.5925 13.8693 14.1 14.0859C13.0669 14.5105 11.9081 14.5105 10.875 14.0859C10.3825 13.8693 9.93355 13.5648 9.55 13.1875C9.17159 12.8097 8.8739 12.3589 8.675 11.8625V11.8641ZM20.275 20.1547C20.275 20.1047 20.25 20.0797 20.25 20.0297C20.0041 19.2475 19.6417 18.5069 19.175 17.8328C18.7078 17.1537 18.1337 16.5548 17.475 16.0594C16.9719 15.6809 16.4266 15.3621 15.85 15.1094C16.1123 14.9363 16.3554 14.7357 16.575 14.5109C16.9477 14.143 17.275 13.7317 17.55 13.2859C18.1037 12.3763 18.3896 11.3289 18.375 10.2641C18.3827 9.4758 18.2296 8.69425 17.925 7.96719C17.6243 7.26662 17.1914 6.63056 16.65 6.09375C16.1094 5.56255 15.4732 5.13842 14.775 4.84375C14.0467 4.53968 13.2642 4.3871 12.475 4.39531C11.6857 4.38759 10.9032 4.5407 10.175 4.84531C9.47071 5.13936 8.83298 5.57248 8.3 6.11875C7.76882 6.65873 7.34468 7.2944 7.05 7.99219C6.74539 8.71925 6.59227 9.5008 6.6 10.2891C6.6 10.8391 6.675 11.3641 6.825 11.8625C6.975 12.3875 7.175 12.8625 7.45 13.3109C7.7 13.7609 8.05 14.1609 8.425 14.5359C8.65 14.7609 8.9 14.9594 9.175 15.1344C8.59662 15.3938 8.05112 15.7211 7.55 16.1094C6.9 16.6094 6.325 17.2078 5.85 17.8578C5.37853 18.5291 5.01575 19.2705 4.775 20.0547C4.75 20.1047 4.75 20.1547 4.75 20.1797C2.775 18.1812 1.55 15.4844 1.55 12.4875C1.55 6.46875 6.475 1.54844 12.5 1.54844C18.525 1.54844 23.45 6.46875 23.45 12.4875C23.4467 15.3624 22.3052 18.1191 20.275 20.1547Z"/>
</mask>
<path d="M25 12.4875C25 5.59375 19.4 0 12.5 0C5.6 0 0 5.59375 0 12.4875C0 16.2844 1.725 19.7062 4.425 22.0031C4.45 22.0281 4.475 22.0281 4.475 22.0531C4.7 22.2281 4.925 22.4031 5.175 22.5781C5.3 22.6531 5.4 22.7516 5.525 22.8516C7.59073 24.2521 10.0292 25.0006 12.525 25C15.0208 25.0006 17.4593 24.2521 19.525 22.8516C19.65 22.7766 19.75 22.6781 19.875 22.6016C20.1 22.4281 20.35 22.2531 20.575 22.0781C20.6 22.0531 20.625 22.0531 20.625 22.0281C23.275 19.7047 25 16.2844 25 12.4875ZM12.5 23.4266C10.15 23.4266 8 22.6766 6.225 21.4281C6.25 21.2281 6.3 21.0297 6.35 20.8297C6.49897 20.2877 6.71745 19.7672 7 19.2812C7.275 18.8062 7.6 18.3813 8 18.0063C8.375 17.6313 8.825 17.2828 9.275 17.0078C9.75 16.7328 10.25 16.5328 10.8 16.3828C11.3543 16.2334 11.9259 16.1583 12.5 16.1594C14.2041 16.1473 15.8457 16.801 17.075 17.9813C17.65 18.5563 18.1 19.2313 18.425 20.0047C18.6 20.4547 18.725 20.9297 18.8 21.4281C16.955 22.7252 14.7554 23.423 12.5 23.4266ZM8.675 11.8641C8.45472 11.3597 8.34395 10.8144 8.35 10.2641C8.35 9.71562 8.45 9.16562 8.675 8.66562C8.9 8.16562 9.2 7.71719 9.575 7.34219C9.95 6.96719 10.4 6.66875 10.9 6.44375C11.4 6.21875 11.95 6.11875 12.5 6.11875C13.075 6.11875 13.6 6.21875 14.1 6.44375C14.6 6.66875 15.05 6.96875 15.425 7.34219C15.8 7.71719 16.1 8.16719 16.325 8.66562C16.55 9.16562 16.65 9.71562 16.65 10.2641C16.65 10.8391 16.55 11.3641 16.325 11.8625C16.1079 12.3551 15.8029 12.8041 15.425 13.1875C15.0415 13.5648 14.5925 13.8693 14.1 14.0859C13.0669 14.5105 11.9081 14.5105 10.875 14.0859C10.3825 13.8693 9.93355 13.5648 9.55 13.1875C9.17159 12.8097 8.8739 12.3589 8.675 11.8625V11.8641ZM20.275 20.1547C20.275 20.1047 20.25 20.0797 20.25 20.0297C20.0041 19.2475 19.6417 18.5069 19.175 17.8328C18.7078 17.1537 18.1337 16.5548 17.475 16.0594C16.9719 15.6809 16.4266 15.3621 15.85 15.1094C16.1123 14.9363 16.3554 14.7357 16.575 14.5109C16.9477 14.143 17.275 13.7317 17.55 13.2859C18.1037 12.3763 18.3896 11.3289 18.375 10.2641C18.3827 9.4758 18.2296 8.69425 17.925 7.96719C17.6243 7.26662 17.1914 6.63056 16.65 6.09375C16.1094 5.56255 15.4732 5.13842 14.775 4.84375C14.0467 4.53968 13.2642 4.3871 12.475 4.39531C11.6857 4.38759 10.9032 4.5407 10.175 4.84531C9.47071 5.13936 8.83298 5.57248 8.3 6.11875C7.76882 6.65873 7.34468 7.2944 7.05 7.99219C6.74539 8.71925 6.59227 9.5008 6.6 10.2891C6.6 10.8391 6.675 11.3641 6.825 11.8625C6.975 12.3875 7.175 12.8625 7.45 13.3109C7.7 13.7609 8.05 14.1609 8.425 14.5359C8.65 14.7609 8.9 14.9594 9.175 15.1344C8.59662 15.3938 8.05112 15.7211 7.55 16.1094C6.9 16.6094 6.325 17.2078 5.85 17.8578C5.37853 18.5291 5.01575 19.2705 4.775 20.0547C4.75 20.1047 4.75 20.1547 4.75 20.1797C2.775 18.1812 1.55 15.4844 1.55 12.4875C1.55 6.46875 6.475 1.54844 12.5 1.54844C18.525 1.54844 23.45 6.46875 23.45 12.4875C23.4467 15.3624 22.3052 18.1191 20.275 20.1547Z" fill="#1D1D1D"/>
<path d="M4.425 22.0031L6.54632 19.8818L6.46089 19.7964L6.36887 19.7181L4.425 22.0031ZM4.475 22.0531H1.475V23.5204L2.63318 24.4212L4.475 22.0531ZM5.175 22.5781L3.45461 25.0358L3.54104 25.0963L3.63151 25.1506L5.175 22.5781ZM5.525 22.8516L3.65091 25.1942L3.74341 25.2682L3.84146 25.3346L5.525 22.8516ZM12.525 25L12.5257 22H12.5243L12.525 25ZM19.525 22.8516L17.9815 20.2791L17.9102 20.3218L17.8415 20.3685L19.525 22.8516ZM19.875 22.6016L21.4419 25.1598L21.5791 25.0758L21.7065 24.9776L19.875 22.6016ZM20.575 22.0781L22.4168 24.4462L22.5643 24.3315L22.6963 24.1994L20.575 22.0781ZM20.625 22.0281L18.6472 19.7724L17.625 20.6686V22.0281H20.625ZM12.5 23.4266V26.4266L12.5048 26.4266L12.5 23.4266ZM6.225 21.4281L3.24817 21.056L3.02456 22.8448L4.49911 23.882L6.225 21.4281ZM6.35 20.8297L3.45726 20.0347L3.44802 20.0683L3.43957 20.1021L6.35 20.8297ZM7 19.2812L9.59346 20.7892L9.59628 20.7844L7 19.2812ZM8 18.0063L10.0518 20.1949L10.0871 20.1618L10.1213 20.1276L8 18.0063ZM9.275 17.0078L7.77189 14.4115L7.74105 14.4294L7.71065 14.448L9.275 17.0078ZM10.8 16.3828L10.0192 13.4862L10.0106 13.4885L10.8 16.3828ZM12.5 16.1594L12.4943 19.1594L12.5078 19.1594L12.5212 19.1593L12.5 16.1594ZM17.075 17.9813L19.1963 15.8599L19.1747 15.8383L19.1527 15.8172L17.075 17.9813ZM18.425 20.0047L21.221 18.9173L21.2064 18.8797L21.1907 18.8425L18.425 20.0047ZM18.8 21.4281L20.5254 23.8823L22.0426 22.8157L21.7666 20.9817L18.8 21.4281ZM8.675 11.8641L5.92578 13.0648L11.675 11.8641H8.675ZM8.35 10.2641L11.3498 10.297L11.35 10.2806V10.2641H8.35ZM15.425 7.34219L17.5463 5.22086L17.5419 5.21644L15.425 7.34219ZM16.325 8.66562L19.0608 7.43453L19.0593 7.43132L16.325 8.66562ZM16.325 11.8625L13.5907 10.6282L13.5852 10.6403L13.5799 10.6524L16.325 11.8625ZM15.425 13.1875L17.5289 15.3261L17.5454 15.3098L17.5617 15.2934L15.425 13.1875ZM14.1 14.0859L15.2403 16.8608L15.2744 16.8468L15.3081 16.8319L14.1 14.0859ZM10.875 14.0859L9.66686 16.8319L9.70059 16.8468L9.73467 16.8608L10.875 14.0859ZM9.55 13.1875L7.43032 15.3105L7.43817 15.3183L7.44608 15.3261L9.55 13.1875ZM8.675 11.8625L11.4598 10.7467L5.675 11.8625H8.675ZM20.25 20.0297H23.25V19.5693L23.1119 19.13L20.25 20.0297ZM19.175 17.8328L16.7033 19.5331L16.7085 19.5405L19.175 17.8328ZM17.475 16.0594L15.6715 18.4567L15.6718 18.457L17.475 16.0594ZM15.85 15.1094L14.198 12.6052L9.59375 15.6427L14.6457 17.857L15.85 15.1094ZM16.575 14.5109L14.4673 12.376L14.4482 12.395L14.4293 12.4142L16.575 14.5109ZM17.55 13.2859L20.1034 14.8608L20.108 14.8533L20.1126 14.8457L17.55 13.2859ZM18.375 10.2641L15.3751 10.2346L15.3748 10.27L15.3753 10.3053L18.375 10.2641ZM17.925 7.96719L20.692 6.80793L20.6869 6.79582L20.6817 6.78375L17.925 7.96719ZM16.65 6.09375L18.7624 3.96346L18.7527 3.95398L16.65 6.09375ZM14.775 4.84375L15.9414 2.07978L15.9309 2.07536L14.775 4.84375ZM12.475 4.39531L12.4457 7.39517L12.4759 7.39547L12.5062 7.39515L12.475 4.39531ZM10.175 4.84531L11.3308 7.61372L11.3328 7.61291L10.175 4.84531ZM8.3 6.11875L10.4387 8.2226L10.4473 8.21379L8.3 6.11875ZM7.05 7.99219L4.28632 6.82507L4.28303 6.83293L7.05 7.99219ZM6.6 10.2891H9.6V10.2743L9.59986 10.2596L6.6 10.2891ZM6.825 11.8625L9.70957 11.0383L9.70379 11.0181L9.69773 10.998L6.825 11.8625ZM7.45 13.3109L10.0725 11.854L10.0411 11.7976L10.0074 11.7426L7.45 13.3109ZM9.175 15.1344L10.4029 17.8716L15.483 15.5926L10.7856 12.6034L9.175 15.1344ZM7.55 16.1094L9.37914 18.4873L9.38731 18.4809L7.55 16.1094ZM5.85 17.8578L3.42783 16.0878L3.41119 16.1105L3.39499 16.1336L5.85 17.8578ZM4.775 20.0547L7.45828 21.3963L7.56975 21.1734L7.64289 20.9351L4.775 20.0547ZM4.75 20.1797L2.6162 22.2885L7.75 27.4832V20.1797H4.75ZM23.45 12.4875L26.45 12.4909V12.4875H23.45ZM28 12.4875C28 3.93396 21.0539 -3 12.5 -3V3C17.7461 3 22 7.25353 22 12.4875H28ZM12.5 -3C3.94608 -3 -3 3.93396 -3 12.4875H3C3 7.25353 7.25392 3 12.5 3V-3ZM-3 12.4875C-3 17.2111 -0.85225 21.4525 2.48113 24.2882L6.36887 19.7181C4.30225 17.96 3 15.3577 3 12.4875H-3ZM2.30368 24.1244C2.49104 24.3118 2.66623 24.4388 2.77924 24.5141C2.82966 24.5477 2.87207 24.5737 2.87431 24.5751C2.89214 24.5861 2.84515 24.5575 2.79524 24.5243C2.71171 24.4686 2.3371 24.2217 2.01299 23.7586C1.63006 23.2116 1.475 22.6028 1.475 22.0531H7.475C7.475 21.491 7.31681 20.8728 6.92841 20.3179C6.59883 19.8471 6.21641 19.5939 6.12351 19.532C6.06892 19.4956 6.01685 19.4639 6.0293 19.4716C6.02932 19.4716 6.02995 19.472 6.03085 19.4725C6.03177 19.4731 6.0332 19.474 6.03497 19.4751C6.03847 19.4773 6.04387 19.4806 6.05051 19.4848C6.06373 19.4932 6.08356 19.5059 6.10748 19.5218C6.20877 19.5894 6.37146 19.7069 6.54632 19.8818L2.30368 24.1244ZM2.63318 24.4212C2.85131 24.5908 3.13356 24.8111 3.45461 25.0358L6.89539 20.1204C6.71644 19.9952 6.54869 19.8654 6.31682 19.6851L2.63318 24.4212ZM3.63151 25.1506C3.56572 25.1111 3.5154 25.0759 3.48316 25.0521C3.46713 25.0402 3.4551 25.0309 3.44789 25.0252C3.44081 25.0196 3.43734 25.0167 3.43894 25.018C3.4408 25.0195 3.44538 25.0234 3.45565 25.032C3.46074 25.0363 3.46623 25.041 3.47336 25.047C3.47998 25.0527 3.48853 25.0599 3.49715 25.0672C3.51461 25.082 3.53727 25.1011 3.56254 25.1221C3.58809 25.1433 3.61786 25.1677 3.65091 25.1942L7.39909 20.509C7.40117 20.5106 7.39703 20.5074 7.37316 20.4872C7.35857 20.4748 7.30714 20.431 7.26106 20.3929C7.16047 20.3098 6.97042 20.1568 6.71849 20.0056L3.63151 25.1506ZM3.84146 25.3346C6.40421 27.0722 9.42942 28.0007 12.5257 28L12.5243 22C10.629 22.0004 8.77725 21.4321 7.20854 20.3685L3.84146 25.3346ZM12.5243 28C15.6206 28.0007 18.6458 27.0722 21.2085 25.3346L17.8415 20.3685C16.2727 21.4321 14.421 22.0004 12.5257 22L12.5243 28ZM21.0685 25.424C21.1956 25.3477 21.3002 25.2752 21.3766 25.2199C21.4488 25.1675 21.5121 25.1182 21.5367 25.0992C21.5726 25.0714 21.5673 25.0757 21.5576 25.0828C21.543 25.0935 21.5018 25.1232 21.4419 25.1598L18.3081 20.0433C18.1857 20.1182 18.0852 20.1889 18.0128 20.2419C17.9452 20.2914 17.8837 20.3393 17.8633 20.3551C17.8317 20.3796 17.8387 20.3738 17.8531 20.3634C17.8716 20.35 17.9169 20.3179 17.9815 20.2791L21.0685 25.424ZM21.7065 24.9776C21.7865 24.916 21.8753 24.8507 22.002 24.7575C22.1171 24.6729 22.2675 24.5623 22.4168 24.4462L18.7332 19.7101C18.6575 19.7689 18.5704 19.8333 18.448 19.9234C18.3372 20.0048 18.1885 20.1137 18.0435 20.2255L21.7065 24.9776ZM22.6963 24.1994C22.5215 24.3743 22.3588 24.4919 22.2575 24.5594C22.2336 24.5754 22.2137 24.588 22.2005 24.5964C22.1939 24.6006 22.1885 24.604 22.185 24.6061C22.1832 24.6072 22.1818 24.6081 22.1809 24.6087C22.18 24.6093 22.1793 24.6097 22.1793 24.6097C22.1669 24.6174 22.2189 24.5856 22.2735 24.5492C22.3664 24.4873 22.7489 24.2341 23.0784 23.7633C23.4668 23.2084 23.625 22.5903 23.625 22.0281H17.625C17.625 21.4785 17.78 20.8697 18.163 20.3226C18.4871 19.8596 18.8617 19.6127 18.9452 19.557C18.9951 19.5237 19.0421 19.4951 19.0243 19.5062C19.0221 19.5075 18.9796 19.5335 18.9292 19.5672C18.8162 19.6425 18.641 19.7694 18.4537 19.9568L22.6963 24.1994ZM22.6028 24.2839C25.8541 21.4332 28 17.2107 28 12.4875H22C22 15.3581 20.6959 17.9762 18.6472 19.7724L22.6028 24.2839ZM12.5 20.4266C10.8044 20.4266 9.25137 19.889 7.95089 18.9743L4.49911 23.882C6.74863 25.4641 9.49556 26.4266 12.5 26.4266V20.4266ZM9.20183 21.8002C9.1993 21.8205 9.19862 21.8165 9.2083 21.7724C9.21915 21.723 9.23293 21.6673 9.26043 21.5573L3.43957 20.1021C3.39892 20.2647 3.29971 20.6437 3.24817 21.056L9.20183 21.8002ZM9.24274 21.6247C9.32312 21.3322 9.441 21.0514 9.59346 20.7892L4.40654 17.7733C3.99389 18.483 3.67481 19.2431 3.45726 20.0347L9.24274 21.6247ZM9.59628 20.7844C9.74342 20.5302 9.89203 20.3447 10.0518 20.1949L5.94818 15.8176C5.30797 16.4178 4.80658 17.0823 4.40372 17.7781L9.59628 20.7844ZM10.1213 20.1276C10.3173 19.9316 10.5775 19.7277 10.8393 19.5677L7.71065 14.448C7.07248 14.838 6.4327 15.3309 5.87868 15.8849L10.1213 20.1276ZM10.7781 19.6041C10.9999 19.4757 11.2544 19.3685 11.5894 19.2771L10.0106 13.4885C9.24564 13.6972 8.50014 13.9899 7.77189 14.4115L10.7781 19.6041ZM11.5808 19.2794C11.8786 19.1992 12.1858 19.1588 12.4943 19.1594L12.5057 13.1594C11.6661 13.1578 10.83 13.2677 10.0192 13.4862L11.5808 19.2794ZM12.5212 19.1593C13.4436 19.1528 14.332 19.5066 14.9973 20.1453L19.1527 15.8172C17.3594 14.0954 14.9647 13.1418 12.4788 13.1595L12.5212 19.1593ZM14.9537 20.1026C15.2442 20.3931 15.4796 20.7393 15.6593 21.1669L21.1907 18.8425C20.7204 17.7232 20.0558 16.7194 19.1963 15.8599L14.9537 20.1026ZM15.629 21.092C15.7199 21.3257 15.7898 21.5849 15.8334 21.8745L21.7666 20.9817C21.6602 20.2744 21.4801 19.5837 21.221 18.9173L15.629 21.092ZM17.0746 18.9739C15.7335 19.9168 14.1346 20.424 12.4952 20.4266L12.5048 26.4266C15.3761 26.422 18.1764 25.5337 20.5254 23.8823L17.0746 18.9739ZM11.4242 10.6633C11.3738 10.5479 11.3484 10.423 11.3498 10.297L5.35018 10.2311C5.33947 11.2057 5.53565 12.1716 5.92578 13.0648L11.4242 10.6633ZM11.35 10.2641C11.35 10.0716 11.386 9.95175 11.4108 9.89672L5.93924 7.43453C5.514 8.3795 5.35 9.35965 5.35 10.2641H11.35ZM11.4108 9.89672C11.5017 9.69469 11.6032 9.55666 11.6963 9.46351L7.45368 5.22087C6.79683 5.87772 6.29832 6.63656 5.93924 7.43453L11.4108 9.89672ZM11.6963 9.46351C11.784 9.37587 11.9211 9.27399 12.1311 9.17951L9.66891 3.70799C8.87885 4.06351 8.11604 4.5585 7.45368 5.22087L11.6963 9.46351ZM12.1311 9.17951C12.1857 9.15496 12.3054 9.11875 12.5 9.11875V3.11875C11.5946 3.11875 10.6143 3.28254 9.66891 3.70799L12.1311 9.17951ZM12.5 9.11875C12.7098 9.11875 12.8066 9.15147 12.8689 9.17951L15.3311 3.70799C14.3934 3.28603 13.4402 3.11875 12.5 3.11875V9.11875ZM12.8689 9.17951C13.0743 9.27195 13.2151 9.37529 13.3081 9.46793L17.5419 5.21644C16.8849 4.56221 16.1257 4.06555 15.3311 3.70799L12.8689 9.17951ZM13.3037 9.46351C13.395 9.55478 13.4979 9.69435 13.5907 9.89993L19.0593 7.43132C18.7021 6.64002 18.205 5.87959 17.5463 5.22087L13.3037 9.46351ZM13.5892 9.89672C13.614 9.95175 13.65 10.0716 13.65 10.2641H19.65C19.65 9.35965 19.486 8.3795 19.0608 7.43453L13.5892 9.89672ZM13.65 10.2641C13.65 10.4747 13.617 10.5699 13.5907 10.6282L19.0593 13.0968C19.483 12.1583 19.65 11.2035 19.65 10.2641H13.65ZM13.5799 10.6524C13.5095 10.812 13.4107 10.9574 13.2883 11.0816L17.5617 15.2934C18.195 14.6507 18.7062 13.8982 19.0701 13.0726L13.5799 10.6524ZM13.3211 11.0489C13.1968 11.1712 13.0514 11.2698 12.8919 11.34L15.3081 16.8319C16.1336 16.4688 16.8861 15.9585 17.5289 15.3261L13.3211 11.0489ZM12.9597 11.3111C12.6572 11.4354 12.3178 11.4354 12.0153 11.3111L9.73467 16.8608C11.4983 17.5855 13.4767 17.5855 15.2403 16.8608L12.9597 11.3111ZM12.0831 11.34C11.9236 11.2698 11.7782 11.1712 11.6539 11.0489L7.44608 15.3261C8.08893 15.9585 8.84143 16.4688 9.66686 16.8319L12.0831 11.34ZM11.6697 11.0645C11.5789 10.9739 11.5075 10.8658 11.4598 10.7467L5.89023 12.9783C6.24031 13.852 6.76427 14.6454 7.43032 15.3105L11.6697 11.0645ZM5.675 11.8625V11.8641H11.675V11.8625H5.675ZM23.275 20.1547C23.275 20.022 23.2666 19.894 23.2516 19.7713C23.2365 19.6491 23.2159 19.5401 23.1943 19.4465C23.173 19.3543 23.1512 19.279 23.1357 19.2282C23.1279 19.2029 23.1212 19.1821 23.1167 19.1683C23.1126 19.1556 23.1088 19.1444 23.1086 19.1435C23.1073 19.1397 23.1095 19.1462 23.1121 19.1542C23.115 19.1633 23.1202 19.1794 23.1265 19.1999C23.1391 19.2411 23.1581 19.3067 23.1771 19.3887C23.1963 19.4722 23.2151 19.5706 23.2287 19.6817C23.2424 19.7932 23.25 19.9095 23.25 20.0297H17.25C17.25 20.1624 17.2584 20.2904 17.2734 20.413C17.2885 20.5353 17.3091 20.6442 17.3307 20.7379C17.352 20.8301 17.3738 20.9054 17.3893 20.9562C17.3971 20.9815 17.4038 21.0023 17.4083 21.0161C17.4124 21.0288 17.4162 21.04 17.4164 21.0409C17.4177 21.0447 17.4155 21.0382 17.4129 21.0302C17.41 21.0211 17.4048 21.005 17.3985 20.9845C17.3859 20.9433 17.3669 20.8777 17.3479 20.7957C17.3287 20.7122 17.3099 20.6138 17.2963 20.5027C17.2826 20.3912 17.275 20.2749 17.275 20.1547H23.275ZM23.1119 19.13C22.7756 18.0602 22.2799 17.0471 21.6415 16.1251L16.7085 19.5405C17.0035 19.9667 17.2326 20.4349 17.3881 20.9294L23.1119 19.13ZM21.6467 16.1325C20.9958 15.1864 20.196 14.352 19.2782 13.6618L15.6718 18.457C16.0715 18.7576 16.4199 19.121 16.7033 19.5331L21.6467 16.1325ZM19.2785 13.662C18.5899 13.144 17.8435 12.7076 17.0543 12.3617L14.6457 17.857C15.0097 18.0166 15.3539 18.2178 15.6715 18.4567L19.2785 13.662ZM17.502 17.6135C17.943 17.3226 18.3515 16.9854 18.7207 16.6076L14.4293 12.4142C14.3592 12.486 14.2817 12.55 14.198 12.6052L17.502 17.6135ZM18.6827 16.6458C19.2258 16.1097 19.7027 15.5104 20.1034 14.8608L14.9966 11.711C14.8474 11.953 14.6697 12.1763 14.4673 12.376L18.6827 16.6458ZM20.1126 14.8457C20.9597 13.4541 21.3971 11.8518 21.3747 10.2229L15.3753 10.3053C15.3822 10.806 15.2477 11.2984 14.9874 11.7262L20.1126 14.8457ZM21.3749 10.2935C21.3866 9.09729 21.1542 7.91127 20.692 6.80793L15.158 9.12644C15.305 9.47723 15.3789 9.85432 15.3751 10.2346L21.3749 10.2935ZM20.6817 6.78375C20.229 5.72912 19.5773 4.77159 18.7623 3.96348L14.5377 8.22402C14.8054 8.48953 15.0195 8.80413 15.1683 9.15063L20.6817 6.78375ZM18.7527 3.95398C17.9422 3.15753 16.9884 2.52161 15.9414 2.0798L13.6086 7.6077C13.9581 7.75523 14.2767 7.96757 14.5473 8.23352L18.7527 3.95398ZM15.9309 2.07536C14.8267 1.61435 13.6402 1.38302 12.4438 1.39547L12.5062 7.39515C12.8881 7.39118 13.2667 7.465 13.6191 7.61214L15.9309 2.07536ZM12.5043 1.39546C11.3077 1.38375 10.1212 1.61589 9.01724 2.07771L11.3328 7.61291C11.6851 7.46552 12.0638 7.39143 12.4457 7.39517L12.5043 1.39546ZM9.01919 2.0769C7.94248 2.52643 6.96754 3.18858 6.15272 4.02371L10.4473 8.21379C10.6984 7.95638 10.9989 7.75228 11.3308 7.61372L9.01919 2.0769ZM6.16133 4.01492C5.36456 4.82489 4.72835 5.7784 4.28633 6.82507L9.81367 9.1593C9.961 8.81041 10.1731 8.49257 10.4387 8.22258L6.16133 4.01492ZM4.28303 6.83293C3.82077 7.93627 3.58841 9.12229 3.60014 10.3185L9.59986 10.2596C9.59612 9.87932 9.67 9.50223 9.81697 9.15144L4.28303 6.83293ZM3.6 10.2891C3.6 11.1149 3.7131 11.9323 3.95227 12.727L9.69773 10.998C9.6369 10.7958 9.6 10.5633 9.6 10.2891H3.6ZM3.94043 12.6867C4.15489 13.4373 4.45688 14.1688 4.89258 14.8793L10.0074 11.7426C9.89312 11.5562 9.79511 11.3377 9.70957 11.0383L3.94043 12.6867ZM4.82753 14.7679C5.27703 15.577 5.85408 16.2077 6.30368 16.6573L10.5463 12.4146C10.2459 12.1142 10.123 11.9449 10.0725 11.854L4.82753 14.7679ZM6.30368 16.6573C6.69252 17.0461 7.11584 17.3799 7.56437 17.6654L10.7856 12.6034C10.6842 12.5388 10.6075 12.4758 10.5463 12.4146L6.30368 16.6573ZM7.94706 12.3972C7.15179 12.754 6.40173 13.204 5.71269 13.7378L9.38731 18.4809C9.70051 18.2383 10.0414 18.0337 10.4029 17.8716L7.94706 12.3972ZM5.72087 13.7315C4.8351 14.4129 4.06287 15.2188 3.42783 16.0878L8.27217 19.6279C8.58713 19.1969 8.9649 18.8059 9.37913 18.4872L5.72087 13.7315ZM3.39499 16.1336C2.74244 17.0627 2.24032 18.0889 1.90711 19.1742L7.64289 20.9351C7.79118 20.4521 8.01462 19.9955 8.30501 19.582L3.39499 16.1336ZM2.09172 18.713C1.72483 19.4468 1.75 20.1284 1.75 20.1797H7.75C7.75 20.1776 7.7525 20.3441 7.72297 20.5508C7.6928 20.762 7.62434 21.0642 7.45828 21.3963L2.09172 18.713ZM6.8838 18.0709C5.42392 16.5937 4.55 14.6399 4.55 12.4875H-1.45C-1.45 16.3288 0.126081 19.7688 2.6162 22.2885L6.8838 18.0709ZM4.55 12.4875C4.55 8.12839 8.12907 4.54844 12.5 4.54844V-1.45156C4.82093 -1.45156 -1.45 4.80911 -1.45 12.4875H4.55ZM12.5 4.54844C16.8709 4.54844 20.45 8.12839 20.45 12.4875H26.45C26.45 4.80911 20.1791 -1.45156 12.5 -1.45156V4.54844ZM20.45 12.4841C20.4476 14.5659 19.621 16.5621 18.1509 18.0362L22.3991 22.2732C24.9894 19.6761 26.4458 16.1589 26.45 12.4909L20.45 12.4841Z" fill="#1D1D1D" mask="url(#path-1-inside-1_388_893)"/>
</g>
<defs>
<clipPath id="clip0_388_893">
<rect width="25" height="25" fill="white"/>
</clipPath>
</defs>
</svg>
