<svg width="232" height="311" viewBox="0 0 232 311" fill="none" xmlns="http://www.w3.org/2000/svg">
<path d="M81.7129 85.7908L80.3711 58.8047L119.732 66.1103C120.157 75.181 120.051 80.5156 118.39 91.0091L119.732 113.522L97.2188 111.882L81.7129 85.7908Z" fill="#8B4B2B"/>
<path d="M106.164 107.854L99.7531 97.2687H89.9128L87.9746 100.251L73.8106 85.9375C70.3114 87.0523 68.4176 87.6742 63.2249 88.6212C60.8761 88.7215 59.8339 89.2861 58.1556 90.5594V100.251L55.1738 142.892H41.0098L46.9736 150.794L48.6136 168.983H106.164V107.854Z" fill="#BE65E6"/>
<path d="M33.8546 146.031C36.6374 145.473 38.0704 144.607 40.2657 142.453L51.1482 140.067L48.0172 117.256C44.9137 110.732 38.7995 109.527 31.0219 108.758L23.418 111.739L20.138 106.67V101.75L3.73754 99.9609C2.54368 104.758 1.82308 107.706 0.0101715 115.616C-0.0651739 122.187 0.229907 125.845 2.54478 132.314L7.46491 142.453C8.61321 144.142 10.2124 144.184 13.5778 143.795C15.1308 145.688 16.0529 146.04 17.7524 146.031L21.778 144.838L33.8546 146.031Z" fill="#AC613C"/>
<path d="M14.2889 70.2247L11.4902 74.821L23.716 76.7013C21.2779 74.2349 20.7356 72.6226 20.77 69.4934C21.3592 68.0291 21.8446 67.8052 21.8011 66.4622C21.1084 62.9656 20.9676 61.3797 17.9714 58.4205C14.4736 57.266 13.2132 57.2565 12.6686 59.0472L14.2889 64.1659C14.3612 66.69 14.35 67.9913 14.2889 70.2247Z" fill="#AC613C"/>
<path d="M141.501 91.9026L128.381 85.6406L104.525 109.496L106.315 168.537L130.021 170.177L152.683 158.25L183.695 153.031C181.294 135.677 179.41 126.038 171.171 109.496C170.263 107.796 169.744 106.841 168.04 105.023L165.356 101.146L161.48 99.5064C160.023 96.5885 158.628 95.3323 155.367 93.5426H150.297C146.804 92.909 144.91 92.432 141.501 91.9026Z" fill="#BE65E6"/>
<path d="M192.491 208.197C190.66 186.721 189.932 174.693 183.843 152.883L159.094 157.356L161.181 220.274L181.011 217.143L187.273 215.055C190.768 213.432 191.877 211.906 192.491 208.197Z" fill="#AC613C"/>
<path d="M81.9613 215L54 235.889L76.9626 258.121L128.511 262L171 241.111L163.658 223.206L81.9613 215Z" fill="#000004"/>
<path d="M194.278 223.547H179.07L164.608 239.947L155.364 241.886L133.745 254.559H129.272L125.843 257.391L103.777 254.559L94.8315 259.777L91.4023 263.504L141.647 284.676L180.263 279.756L190.848 282.887L207.994 271.257C212.766 267.779 214.9 265.385 215.598 258.435C217.714 254.271 218.462 251.491 219.176 246.06C219.226 239.818 219.042 236.323 210.827 230.256C204.984 226.006 201.483 224.21 194.278 223.547Z" fill="#27384C"/>
<path d="M192.191 273.656L181.158 280.961L173.256 287.074L177.878 292.143L179.518 304.667L183.394 305.86L217.239 308.693C219.251 310.443 220.44 310.828 222.606 310.929C227.324 310.788 229.436 309.822 231.999 305.86C231.912 291.402 231.439 282.952 218.432 269.779C214.757 269.46 212.73 269.4 209.784 272.016L204.864 273.656C204.864 273.656 203.522 273.656 202.777 272.016C202.031 270.376 192.191 273.656 192.191 273.656Z" fill="#6C6674"/>
<path d="M179.668 304.21L171.318 303.613L173.107 286.766L178.028 292.133L179.668 304.21Z" fill="#B4B4B4"/>
<path d="M73.3635 297.654L55.7704 298.996L51.5957 287.963L60.0941 285.727L73.3635 297.654Z" fill="#B4B4B4"/>
<path d="M21.18 224.296C27.6502 223.717 31.3289 224.148 37.8786 225.936L68.7412 246.064L98.5601 262.017C100.522 262.348 101.677 262.188 103.629 262.017L128.23 270.068C137.331 271.391 142.491 272.064 149.7 275.435C153.588 275.853 155.601 276.266 157.303 279.013C157.805 277.237 158.336 276.42 161.18 276.33C164.19 276.961 164.816 277.539 164.311 279.013C165.293 277.331 166.659 276.536 176.089 276.33C181.819 279.109 182.6 279.988 181.308 280.803L173.257 287.214L171.318 304.807H161.18H157.303L150.892 300.036L135.536 304.807L124.353 301.974C113.619 302.629 107.558 302.706 96.3237 300.036C92.2812 301.863 89.6615 302.013 84.8434 301.974C74.4604 298.65 68.836 296.199 59.7955 288.854C57.3659 289.57 56.0159 290.009 53.0862 288.854L9.40151 266.489C3.6497 263.141 2.11913 260.019 0.455828 253.667C-0.232695 248.215 -0.0591469 244.707 5.52505 234.285C10.2883 228.234 13.8459 226.251 21.18 224.296Z" fill="#97A7B6"/>
<path d="M1.94614 302.275C0.903142 284.79 3.07545 277.131 12.3828 268.133L51.5947 288.111L56.2166 298.995L42.0526 300.039C32.0677 300.963 26.3639 301.903 16.1101 303.916L13.1282 305.854C7.0562 307.812 3.42855 307.875 1.94614 302.275Z" fill="#6C6674"/>
<path d="M38.4696 227.014C36.3664 225.247 37.5462 221.818 40.2911 221.719L48.039 221.44C49.7371 221.378 51.147 222.738 51.147 224.438V227.753C51.147 228.926 50.4642 229.99 49.3989 230.48L46.7266 231.707C45.6724 232.191 44.4335 232.024 43.5452 231.277L38.4696 227.014Z" fill="#878183"/>
<path d="M40.7568 165.697C40.8964 157.514 47.5701 150.953 55.7546 150.953H166.127C174.652 150.953 181.463 158.049 181.114 166.567L178.765 223.936C178.435 231.975 171.823 238.323 163.777 238.323H54.7756C46.3912 238.323 39.6347 231.45 39.7778 223.067L40.7568 165.697Z" fill="#5F5F74"/>
<path d="M77.2383 40.76L81.2638 19.5886C82.3209 10.4512 85.963 6.99428 96.6206 3.03906L123.458 12.432L125.247 37.1817V47.6184C125.234 52.9501 124.866 55.8184 123.458 61.186C119.794 66.62 117.45 69.6461 111.083 72.5172C104.524 75.993 100.44 75.3604 92.8932 72.5172C84.6505 67.6882 82.5709 63.0808 78.5801 55.0731L77.2383 40.76Z" fill="#AC613C"/>
<path d="M77.6859 38.3028L78.2824 40.3165V41.6584L78.5817 55.7387C78.7297 56.3419 78.8938 55.9513 78.2824 56.64C77.4399 57.7517 76.8748 58.0283 76.046 56.64L75.0034 51.7131L72.4677 44.2653C70.5303 37.6064 73.7171 36.7364 77.6859 38.3028Z" fill="#AC613C"/>
<path d="M126.888 38.226C126.292 38.8224 125.099 41.357 125.099 41.357L124.354 57.4592C125.436 57.785 125.862 57.5873 126.143 56.7137L125.695 52.6882L128.081 48.0662C129.54 43.1304 130.029 40.6191 128.081 38.226C128.081 38.226 127.485 37.6296 126.888 38.226Z" fill="#AC613C"/>
<path d="M85.8874 10.9422C92.1008 8.12361 95.2876 5.73342 103.63 8.70576C110.676 8.6541 113.197 10.4181 118.241 12.8804C121.925 14.6436 122.87 16.5203 123.757 20.4842L125.249 41.658L126.292 38.8229L127.187 32.5609C128.693 25.7452 128.353 21.9314 127.187 15.1168C125.596 10.5949 124.647 8.09076 119.135 4.6802C113.605 1.63665 110.327 0.354491 103.63 0.0582705C97.7777 -0.175385 94.8318 0.230259 90.2111 2.44378C84.0823 5.33181 81.3248 7.41893 78.8799 13.0295C75.1135 18.6275 75.2183 22.2058 76.0471 28.6844L77.6872 39.4193L82.4582 20.4842C82.8066 16.5953 83.2927 14.4468 85.8874 10.9422Z" fill="#150C0A"/>
<path d="M81.7115 77.5907L81.1151 75.0561L80.966 72.9688C77.7827 73.0526 76.9392 73.2252 76.7912 74.1685L73.0638 84.7542C72.1439 93.1117 72.9396 97.3759 77.6858 103.689L100.199 96.98H95.2789C87.8039 89.7305 86.5647 86.518 81.7115 77.5907Z" fill="#EDC5FF"/>
<path d="M116.899 95.7789L106.164 107.856L116.899 103.979L120.477 99.059H135.536L120.03 73.2656L118.39 90.4115L116.899 95.7789Z" fill="#EDC5FF"/>
<path d="M88.6485 195.096C87.7159 193.359 88.3519 191.154 90.0653 190.179L90.2565 190.07L89.2149 188.508L89.0478 188.607C86.493 190.123 85.5925 193.362 86.9986 195.982C87.1915 196.339 87.4175 196.67 87.6712 196.965L87.7909 197.103L89.3569 196.032L89.1934 195.858C88.9808 195.63 88.7977 195.374 88.6485 195.096Z" fill="url(#paint0_linear_201_1658)"/>
<path d="M90.1533 195.511L91.9185 194.344L91.6425 194.176C91.5156 194.1 91.102 193.815 91.102 193.397C91.1011 192.996 91.4066 192.71 91.6925 192.577L91.914 192.475L90.7831 190.856L90.6205 190.951C90.4106 191.072 90.2158 191.223 90.0425 191.398C89.5075 191.934 89.2136 192.646 89.2153 193.401C89.2144 193.837 89.3163 194.272 89.5092 194.658C89.6441 194.931 89.821 195.179 90.0354 195.394L90.1533 195.511Z" fill="url(#paint1_linear_201_1658)"/>
<path fill-rule="evenodd" clip-rule="evenodd" d="M97.1551 195.294C97.1551 192.6 99.3401 190.417 102.034 190.417C104.727 190.417 106.912 192.6 106.912 195.294C106.912 197.988 104.728 200.171 102.034 200.171C99.3401 200.171 97.1551 197.988 97.1551 195.294ZM99.157 195.294C99.157 196.883 100.445 198.171 102.034 198.171C103.623 198.171 104.91 196.882 104.91 195.294C104.91 193.705 103.623 192.417 102.034 192.417C100.444 192.417 99.157 193.706 99.157 195.294ZM94.8977 192.451L95.0639 190.579L91.6488 190.581C91.4389 190.582 91.2325 190.607 91.0324 190.653L91.0127 190.658L92.2661 192.452L94.8977 192.451ZM135.261 191.351C134.658 190.889 133.87 190.636 133.097 190.651C132.062 190.651 131.231 190.975 130.656 191.596L130.611 191.051L130.573 190.807H128.74V199.94H130.699V194.886C130.699 193.543 131.628 192.592 132.957 192.575C133.472 192.575 133.875 192.702 134.303 192.998L134.55 193.168L135.438 191.486L135.261 191.351ZM109.617 191.756C110.338 191.043 111.262 190.671 112.327 190.671C114.746 190.671 116.371 192.38 116.372 194.925V199.943H114.413V194.942C114.413 193.429 113.536 192.526 112.067 192.526C110.689 192.541 109.686 193.608 109.686 195.063V199.942H107.744V190.81L108.01 190.792H109.568L109.617 191.756ZM124.977 191.855L124.988 190.81H126.909V199.943H124.972L124.95 198.928C124.124 199.817 122.955 200.151 122.03 200.151C119.28 200.151 117.36 198.187 117.36 195.376C117.36 194.001 117.815 192.823 118.676 191.968C119.528 191.122 120.73 190.654 122.049 190.671C123.208 190.671 124.267 191.111 124.977 191.855ZM124.233 197.418C124.691 196.894 124.944 196.185 124.944 195.423C124.944 194.062 124.092 192.599 122.227 192.545L122.211 192.561H122.1C120.442 192.561 119.285 193.74 119.285 195.429C119.285 197.101 120.469 198.314 122.1 198.314C122.982 198.314 123.72 198.004 124.233 197.418ZM96.3559 197.13C96.3559 197.88 96.0638 198.584 95.535 199.113C95.0106 199.64 94.3111 199.934 93.567 199.938L89.5409 199.941L89.707 198.067L93.5501 198.065C94.0682 198.062 94.4836 197.643 94.4827 197.13C94.4827 196.851 94.3576 196.588 94.1396 196.41C93.9744 196.273 93.7644 196.198 93.5483 196.198L91.6786 196.201C91.2194 196.201 90.7674 196.092 90.369 195.884L90.3225 195.859L92.6442 194.324L93.5483 194.325C94.1834 194.326 94.7801 194.532 95.2741 194.919C95.3581 194.984 95.4448 195.061 95.5305 195.145C95.8718 195.485 96.1201 195.906 96.2496 196.365C96.3193 196.614 96.3559 196.872 96.3559 197.13Z" fill="url(#paint2_linear_201_1658)"/>
<path d="M30.8718 108.752L24.3116 111.734C22.5735 111.082 22.3603 110.41 23.1189 108.752L27.5917 105.621L37.432 98.1663L39.9666 93.6935C41.4062 91.1812 42.6831 90.5868 45.4831 90.5625L55.4724 91.9044L58.007 90.5625L60.9889 92.6498L56.9634 143.938L43.5448 146.473L39.9666 142.895C45.8584 138.897 46.7891 133.81 46.8249 122.767C46.5022 120.436 46.253 119.13 45.4831 116.803C41.1065 112.251 38.7571 109.594 30.8718 108.752Z" fill="#BE65E6"/>
<path d="M5.52425 74.9044C6.87158 74.0556 7.67785 73.7108 9.40071 73.5625L24.012 74.9044C25.215 75.3583 25.7806 75.8694 26.6957 76.9917C27.4775 79.5102 27.6113 80.8572 26.6957 82.9555L28.783 85.1919C29.8737 87.2612 29.3469 88.3173 27.7394 90.112H25.0557L27.7394 91.603C29.1304 93.5794 28.7093 94.695 27.7394 96.6722L24.012 98.3122C25.6019 100.123 25.448 101.295 24.012 103.531C22.8257 103.682 22.0136 103.699 19.9864 103.531L17.3027 106.662L9.40071 108.898L3.88421 100.101V96.6722L3.13874 90.112C1.48305 87.7199 1.52519 86.3391 2.24417 83.85C2.97811 81.9709 3.77053 81.2744 5.52425 80.4209C4.41224 78.2658 4.75404 77.058 5.52425 74.9044Z" fill="#AC613C"/>
<path d="M68.7537 175.596C70.1758 175.863 70.7052 176.306 71.266 177.513L71.4572 177.999L75.8789 174.223C75.3652 174.48 75.0632 174.678 74.6252 174.659C72.2712 174.457 71.001 174.496 68.9196 175.172C68.4088 175.327 68.3793 175.421 68.7537 175.596Z" fill="#3597C0"/>
<path d="M81.6734 172.292C78.8144 172.542 77.34 172.999 75.1075 174.779L71.2196 177.418C70.9538 179.068 70.5239 179.813 69.9255 181.25C68.7976 184.37 68.691 186.165 68.7097 189.386C68.9463 191.295 69.7413 192.103 71.0737 193.456L71.1014 193.484L71.8998 194.566C72.1777 194.976 72.4005 195.004 72.7729 195.128L72.5958 194.884C72.5548 194.727 72.5492 194.641 72.6274 194.493C72.733 194.449 72.8106 194.471 72.9533 194.52L75.1375 195.91L71.835 192.526C71.3088 191.856 71.7152 190.738 71.8105 189.178C72.1287 187.409 72.5129 186.416 73.752 184.643C76.292 182.07 77.8652 180.736 81.1541 178.713L84.2616 176.799C85.0459 176.823 85.8446 176.697 87.5932 176.576C88.0364 176.776 88.5654 177.134 89.0495 176.825C89.1463 176.44 88.8388 176.185 88.289 175.681L88.1303 175.209C87.8049 174.219 87.3623 173.778 86.4006 173.068C84.738 172.278 83.7432 172.005 81.6734 172.292Z" fill="#3597C0"/>
<path d="M83.0616 175.101C84.7392 174.725 89.2987 176.206 87.5738 175.968C85.8488 175.731 75.3095 181.229 72.2263 187.312C71.4136 184.85 71.1195 183.737 72.8949 180.88C74.0783 178.739 76.4518 178.033 77.7454 177.4C79.0391 176.767 81.0463 175.542 83.0616 175.101Z" fill="#3597C0"/>
<path d="M88.5069 176.255C88.2116 176.002 88.1295 175.904 87.6558 175.826C86.9799 175.734 86.6207 175.752 86.0623 176.058L84.7551 176.805L87.5926 176.608C88.0289 176.841 88.3159 176.994 88.7475 176.931C88.7479 176.682 88.8443 176.545 88.5069 176.255Z" fill="#3597C0"/>
<path d="M84.0718 176.843C83.1313 176.206 82.6313 176.023 82.0124 177.563L81.0631 179.159L80.6492 179.815C80.3629 180.268 80.5872 180.186 80.9836 180.042L80.9919 180.039C81.8563 179.757 82.3263 179.555 83.083 178.929C83.5873 178.515 83.7992 178.22 84.0165 177.528C84.1259 177.188 84.1635 177.017 84.0718 176.843Z" fill="#3597C0"/>
<defs>
<linearGradient id="paint0_linear_201_1658" x1="88.2962" y1="188.508" x2="88.2962" y2="197.103" gradientUnits="userSpaceOnUse">
<stop stop-color="#2CA3D1" stop-opacity="0.46"/>
<stop offset="1" stop-color="#2CA3D1"/>
</linearGradient>
<linearGradient id="paint1_linear_201_1658" x1="90.5669" y1="190.856" x2="90.0874" y2="201.017" gradientUnits="userSpaceOnUse">
<stop offset="0.0104167" stop-color="#2CA3D1"/>
<stop offset="1" stop-color="#2CA3D1" stop-opacity="0.46"/>
</linearGradient>
<linearGradient id="paint2_linear_201_1658" x1="89.5409" y1="194.71" x2="137.952" y2="194.296" gradientUnits="userSpaceOnUse">
<stop stop-color="#2CA3D1"/>
<stop offset="0.979167" stop-color="#2CA3D1" stop-opacity="0.46"/>
</linearGradient>
</defs>
</svg>
