<svg width="37" height="37" viewBox="0 0 37 37" fill="none" xmlns="http://www.w3.org/2000/svg">
<path d="M32.4181 25.134C31.5943 23.7176 30.6115 21.0148 30.6115 16.1875V15.1613C30.6115 8.44063 25.2204 2.93398 18.5865 2.89063H18.4997C16.9068 2.89062 15.3294 3.20485 13.8581 3.81533C12.3867 4.42581 11.0503 5.32054 9.92522 6.44828C8.80017 7.57602 7.90862 8.91462 7.30166 10.3874C6.69469 11.8602 6.38421 13.4383 6.38802 15.0312V16.1875C6.38802 21.0148 5.4052 23.7176 4.58138 25.134C4.32883 25.5743 4.19606 26.0731 4.19629 26.5807C4.19652 27.0882 4.32973 27.5869 4.58267 28.027C4.8356 28.4671 5.19942 28.8332 5.6379 29.0889C6.07637 29.3446 6.57419 29.4809 7.08177 29.4844H12.1693C12.3199 31.0589 13.0519 32.5209 14.2225 33.5847C15.393 34.6486 16.918 35.2381 18.4997 35.2381C20.0815 35.2381 21.6065 34.6486 22.777 33.5847C23.9475 32.5209 24.6796 31.0589 24.8302 29.4844H29.9177C30.4253 29.4809 30.9231 29.3446 31.3616 29.0889C31.8 28.8332 32.1639 28.4671 32.4168 28.027C32.6697 27.5869 32.803 27.0882 32.8032 26.5807C32.8034 26.0731 32.6706 25.5743 32.4181 25.134ZM18.4997 31.7969C17.8341 31.7943 17.1895 31.5632 16.6738 31.1423C16.1582 30.7213 15.8027 30.136 15.6669 29.4844H21.3326C21.1968 30.136 20.8413 30.7213 20.3256 31.1423C19.81 31.5632 19.1654 31.7943 18.4997 31.7969ZM8.03567 26.0156C9.52434 22.8937 9.85677 19.0059 9.85677 16.1875V15.0312C9.85105 13.8933 10.0705 12.7654 10.5025 11.7126C10.9344 10.6598 11.5704 9.70281 12.3737 8.89679C13.177 8.09077 14.1319 7.45162 15.1833 7.01614C16.2346 6.58066 17.3617 6.35745 18.4997 6.35938H18.572C23.2982 6.38828 27.1427 10.334 27.1427 15.1613V16.1875C27.1427 19.0059 27.4751 22.8937 28.9638 26.0156H8.03567Z" fill="#2CA3D1"/>
</svg>
