<svg width="484" height="227" viewBox="0 0 484 227" fill="none" xmlns="http://www.w3.org/2000/svg">
<path d="M173.15 87.2761L176.52 73.7969H192.948L194.633 84.7487L196.318 93.5944L173.15 97.3854V87.2761Z" fill="#AA8A74"/>
<path d="M168.516 85.1749L172.729 86.8598L178.204 89.3872C182.884 90.4031 185.441 90.4727 189.999 88.1235C192.528 86.6795 193.423 85.8479 194.986 84.3951L195.053 84.3325C199.95 84.1203 202.596 84.1897 206.848 85.1749C212.207 85.5974 214.792 86.3727 219.063 88.1235L214.009 95.7055V129.403L192.947 160.574H173.992L163.883 148.78L161.355 134.031C158.782 130.444 159.947 127.515 158.828 122.243C158.362 115.155 158.543 111.17 160.513 104.13L151.246 91.9086C154.262 91.0023 155.592 89.5092 158.828 89.3872C163.203 88.4248 165.233 87.3511 168.516 85.1749Z" fill="#DE96FF"/>
<path d="M228.053 142.504C229.045 138.006 228.921 135.489 228.053 130.982V126.867H223.522L222.012 128.513L223.019 142.504C224.058 144.505 226.731 144.917 228.053 142.504Z" fill="#D9AD90"/>
<path d="M225.382 99.069C224.395 94.1345 222.886 91.1271 219.063 88.1172L213.166 95.6992L219.906 129.397C223.628 129.053 224.837 128.02 229.173 132.346C227.714 118.758 228.123 112.4 225.382 99.069Z" fill="#DE96FF"/>
<path d="M155.88 160.568C155.268 157.952 155.174 156.436 155.88 153.828L182.839 160.568C180.986 171.085 181.536 177.019 183.681 187.526C178.195 190.426 175.058 192.058 168.517 194.266C169.965 198.932 169.485 201.41 166.832 205.639C161.794 208.816 159.058 209.803 154.195 210.693L133.977 198.899L147.035 185.42C144.592 185.052 143.414 184.355 141.98 181.208C141.892 176.035 141.897 173.19 145.771 168.992C149.013 164.825 150.931 162.688 155.88 160.568Z" fill="#1B2733"/>
<path d="M145.771 98.6458C146.779 95.6618 147.118 93.9121 151.247 91.9062L163.463 107.07L160.936 127.289C155.372 124.671 152.465 126.189 147.456 131.501L145.771 98.6458Z" fill="#DE96FF"/>
<path d="M171.465 59.8952C171.23 52.6548 171.755 48.3578 173.571 40.9401L174.835 37.5703H192.947L198.423 48.9434C198.423 56.6468 198.371 60.9707 197.581 68.7409C195.611 72.4159 192.943 74.314 189.156 77.1654C186.248 78.2457 184.102 77.869 181.153 76.7442C176.692 74.6815 174.707 72.9216 172.307 68.3197L171.465 59.8952Z" fill="#D9AD90"/>
<path d="M193.37 43.4632C188.534 40.4321 185.723 39.6594 180.733 38.8297C177.21 38.7027 176.987 39.5949 174.498 42C172.974 48.3615 172.103 51.775 171.886 58.6319C172.508 62.95 172.058 65.1831 172.73 69.1579C174.414 71.2687 176.043 73.8369 178.626 75.4809C179.293 81.3387 176.58 83.1297 172.73 87.2705H166.832C160.648 85.8526 160.078 82.0366 160.093 78.4248L161.357 72.1064C159.572 69.3596 158.71 67.7025 158.829 63.6819C161.412 55.7061 163.204 51.3954 167.675 44.7268C169.347 38.4734 171.154 35.9991 176.099 32.5113C179.76 30.5871 181.919 29.6867 187.894 31.6689C194.932 34.2805 197.555 37.5709 202.215 43.4632C203.768 45.8722 203.833 47.1565 203.058 49.3603C205.465 50.8288 206.619 51.9308 207.691 55.2575C207.792 56.7359 207.494 57.3831 206.006 57.7848C208.393 61.7748 208.146 63.991 207.27 67.8942C206.72 71.2379 205.781 72.4301 203.9 74.2125C207.303 78.5678 207.991 80.9251 206.849 85.5856L206.843 85.5884C204.726 86.5608 203.567 87.0935 198.846 86.0068L198.843 86.0063C196.984 85.6019 195.926 85.3717 194.212 84.3219C192.26 81.1394 192.174 78.9003 192.527 74.6338L195.896 68.7413C197.23 64.1637 197.292 61.5614 197.161 56.9424L195.055 54.415C192.402 50.9868 192.45 48.4115 193.37 43.4632Z" fill="#001169"/>
<path d="M190.842 142.454C192.514 126.656 193.511 117.862 198.003 102.859L222.433 122.657L224.962 165.622C225.149 172.796 224.159 176.407 221.171 182.05C214.945 188.519 210.918 190.855 201.794 191.738L183.682 187.525C180.618 177.172 181.691 171.193 182.839 160.567L190.842 142.454Z" fill="#1B2733"/>
<path d="M197.582 178.257L200.109 169.411L201.373 162.25L213.167 165.62C211.569 170.49 210.897 173.363 210.64 179.52L211.904 186.681H207.691L197.582 178.257Z" fill="#D9AD90"/>
<path d="M208.115 94.8594C205.188 95.1977 203.702 95.9376 201.797 97.8079C199.521 99.5374 198.644 100.42 197.585 102.441C196.779 106.889 196.372 109.379 197.585 113.814C197.204 135.803 197.314 148.468 197.585 171.101C201.063 167.071 203.327 165.844 208.115 167.31C210.048 167.548 211.827 167.908 214.012 172.365L215.276 156.358C219.99 145.167 221.146 138.793 222.437 127.294C223.219 119.152 222.751 114.509 220.752 105.811C219.61 99.7152 219.018 96.2447 213.17 94.8594H208.115Z" fill="#3A6A9A"/>
<path d="M204.322 178.26C201.753 177.474 200.258 177.235 197.162 178.26L195.477 181.209C196.093 185.832 195.086 189.091 192.949 195.109C191.57 199.548 190.304 204.212 192.949 207.325C198.404 211.931 202.887 212.276 214.432 207.325V202.691C212.918 196.262 211.97 192.646 211.904 186.264C211.027 184.498 210.655 183.522 208.535 181.209C207.105 179.624 206.297 178.762 204.322 178.26Z" fill="#F9F9F9"/>
<path d="M149.14 142.874L147.455 131.923C147.826 128.68 148.23 126.916 150.404 124.34C152.061 122.963 153.163 122.341 155.458 122.234C157.841 123.566 158.696 124.82 160.092 126.868C160.529 129.31 161.208 130.821 163.883 133.607V145.823L174.835 155.511L184.944 163.936C188.234 168.048 184.181 166.563 187.471 170.675C186.909 174.726 187.211 174.589 184.944 172.781L183.259 168.148L181.995 171.518L187.05 181.206C187.468 183.329 187.303 184.118 184.102 182.048C180.723 179.392 178.928 177.838 177.362 174.466C175.95 171.626 175.575 169.809 175.677 166.463C168.26 161.267 163.755 158.168 155.458 152.563C152.343 149.938 150.705 148.213 149.14 142.874Z" fill="#D9AD90"/>
<path d="M181.153 139.928L191.262 139.086L190.841 142.456L188.314 147.51L182.417 150.459C179.823 151.77 178.194 152.373 175.256 152.986C172.782 153.504 171.409 153.593 168.938 152.986L163.883 159.305C163.715 160.873 162.993 161.154 160.092 159.305C157.747 158.376 156.773 157.608 156.301 155.092V143.719C161.206 141.871 164.001 141.126 168.938 141.192C174.358 141.929 176.782 141.185 181.153 139.928Z" fill="#D9AD90"/>
<path d="M89.7507 65.7936V56.5267L113.76 53.5781L116.288 65.7936C117.695 68.4213 119.653 69.4755 123.449 71.2696L110.812 86.0124H93.9629L81.3262 71.2696C85.5594 70.201 87.3783 68.9737 89.7507 65.7936Z" fill="#D2B9B5"/>
<path d="M88.4854 39.682C87.5744 32.7751 88.1194 28.9565 92.6977 21.9906C102.122 15.787 107.763 17.8368 117.971 24.0967V52.3188C116.534 57.203 115.198 59.7197 110.81 63.6918C106.218 65.2868 103.594 65.4954 99.016 63.6918C94.7591 62.313 92.5527 61.1821 89.7491 56.9522L88.4854 39.682Z" fill="#EAD1CD"/>
<path d="M85.9578 35.4554C86.7587 32.0392 87.4781 33.1429 88.9064 36.2978L90.5913 48.5133C86.7256 47.8678 85.8933 46.876 85.5366 44.7223C84.8293 41.2408 84.8873 39.1268 85.9578 35.4554Z" fill="#EAD1CD"/>
<path d="M120.078 37.5777C119.223 35.9331 118.346 34.5689 117.551 37.1459L117.972 50.2144C119.192 49.3901 119.818 48.9149 120.078 47.2658C120.904 43.4665 121.281 41.3887 120.078 37.5777Z" fill="#EAD1CD"/>
<path d="M94.3838 24.0899L100.702 22.1944C107.1 21.1278 110.453 23.0575 116.287 27.6703L117.552 38.4105L117.582 38.3305C118.249 36.5522 118.355 36.2685 119.657 36.7256C121.817 32.0644 121.42 29.2294 120.079 24.0899C119.154 22.3549 118.538 21.4281 116.71 20.2989C113.254 18.0541 111.261 16.8726 107.021 15.6654C102.945 14.6186 100.567 14.7096 96.4908 15.6654C92.4965 16.935 90.9552 18.0798 88.4876 20.2989C85.5536 25.1182 85.3691 27.9074 85.9602 32.9356C86.4715 35.3078 87.0766 36.4916 88.4876 38.4105C90.0137 31.2724 91.1632 27.4058 94.3838 24.0899Z" fill="#3E3224"/>
<path d="M96.4909 78.4299L86.3815 69.1629L87.224 68.3205L81.7481 69.1629C74.2652 71.0083 71.059 72.6762 65.7415 76.7411L68.6901 126.028V136.138L64.0566 142.877V157.62H128.083L130.189 106.648L141.562 80.1148C137.316 74.8386 133.23 72.5889 123.871 69.1629C121.911 68.2048 120.736 68.0081 118.395 68.7417L112.919 77.1662C106.022 81.5662 102.403 82.3044 96.4909 78.4299Z" fill="#F9F9F9"/>
<path d="M90.5931 185.421L81.7474 174.469L85.9597 155.514L127.661 154.672C133.029 161.46 134.179 165.329 134.4 172.363C133.013 183.638 128.205 189.067 119.236 198.479C105.006 214.803 97.6745 219.671 85.1172 224.174L75.0078 214.065L90.5931 185.421Z" fill="#282D31"/>
<path d="M59.4213 160.562C41.8382 160.705 32.0985 161.583 14.7715 165.196C26.684 174.293 33.8556 178.302 50.9968 175.727L87.6433 181.203L82.5886 174.884L84.6948 162.669L59.4213 160.562Z" fill="#1D2225"/>
<path d="M47.627 141.407C49.0751 131.524 50.2045 125.829 52.6143 115.914L68.4074 118.112C69.0701 121.266 69.3686 122.989 69.5306 126.023C69.2141 131.568 67.6349 134.344 64.6669 137.891L66.7449 146.682C66.7449 146.682 74.2259 139.942 75.4727 141.407C76.7195 142.872 75.4727 144.045 75.4727 144.045C75.0755 146.21 75.1768 147.86 67.4245 150.454C68.4074 152.835 67.2892 152.799 70.0698 154.154L77.9663 152.835L78.7976 154.154L75.4727 155.033L76.7195 165.582L70.0698 166.461C66.9769 166.519 65.5632 165.983 63.4201 164.263L54.6923 156.791C49.7287 151.323 48.119 147.971 47.627 141.407Z" fill="#EAD1CD"/>
<path d="M59.8425 80.5391C61.3219 78.298 64.6915 76.4218 67.8457 76.3203L69.1094 120.555C62.2544 118.558 58.3819 117.873 51.418 118.449C52.9505 103.609 54.0681 95.2627 59.8425 80.5391Z" fill="#F9F9F9"/>
<path d="M125.979 136.561L127.242 116.763C135.058 110.37 141.554 108.86 147.88 115.488C150.487 123.707 147.107 130.445 145.355 138.667C144.751 144.617 143.239 147.317 139.879 151.725C132.975 153.85 131.051 155.639 123.449 155.937C119.874 156.694 115.788 156.275 112.078 155.937L103.654 158.043L90.5956 165.204C86.4811 166.656 84.1288 167.262 80.065 166.468L79.2226 165.204L79.2147 165.207C78.1933 165.563 77.5948 165.771 76.6952 165.204L75.4316 155.095L78.3801 153.831L82.5924 152.989C85.3511 151.253 86.5045 150.214 88.4895 148.355L82.5924 146.249L76.6952 143.722C74.9962 141.935 74.1879 141.056 76.6952 140.773L87.6471 142.458C92.8403 142.909 95.5464 144.004 100.284 146.249L100.326 146.239C112.188 143.239 118.847 141.556 125.979 136.561Z" fill="#EAD1CD"/>
<path d="M146.615 88.1172C145.85 83.4229 141.751 79.7702 139.033 78.0078L126.396 106.23V116.76C135.191 115.775 140.073 116.307 148.721 118.445C148.752 106.619 148.614 99.9426 146.615 88.1172Z" fill="#F9F9F9"/>
<path d="M3.8179 172.777C7.27186 168.552 9.67736 167.081 14.3485 165.195C21.6238 167.138 25.5978 168.427 31.6187 172.777C39.1818 171.772 43.4437 171.814 50.9951 172.777C66.3147 174.381 73.9868 176.814 87.6416 181.202L91.0114 185.835L81.7444 201.421C60.1875 202.631 48.1254 202.796 26.564 200.578C18.5249 198.945 14.4715 197.318 7.60892 193.839C3.92077 189.671 2.34983 187.214 2.133 182.466C1.62672 178.715 0.987272 176.604 3.8179 172.777Z" fill="#282D31"/>
<path d="M83.8488 188.79C79.8732 192.621 79.0378 195.231 77.1092 199.742L75.4243 204.797C69.5495 204.013 66.6857 205.165 61.9451 210.273C55.5324 219.421 58.282 222.313 66.9998 226.701C74.6189 226.167 78.6359 225.522 83.8488 221.225L106.174 204.797C110.832 198.772 111.295 196.145 109.544 190.475C107.1 185.123 105.017 183.772 100.277 183.736C93.431 183.105 89.9134 183.879 83.8488 188.79Z" fill="#D1CDC3"/>
<path d="M129.766 178.68C137.405 182.091 139.556 185.185 142.402 191.317C144.255 194.428 145.353 196.111 149.142 197.214C159.717 200.986 161.989 204.589 166.833 210.693C166.979 215.23 166.765 217.722 158.409 220.802C154.79 222.125 152.868 221.979 149.142 220.802C146.117 217.702 144.347 216.035 140.296 214.063L123.869 207.323C113.308 201.028 110.176 196.556 108.283 188.789C109.006 183.188 109.558 180.178 113.759 178.68C120.007 176.09 123.512 176.661 129.766 178.68Z" fill="#CDCDCD"/>
<path d="M366.469 71.7819V59.1452L367.311 57.0391L390.057 60.8301C389.688 66.0876 389.26 69.0272 390.479 74.3093L391.742 78.9427H375.736L366.469 71.7819Z" fill="#724D33"/>
<path d="M363.941 36.3978C365.955 25.4819 371.761 25.3793 380.369 23.7611C388.326 22.8405 391.582 25.3237 395.954 29.6582C395.6 40.8732 395.5 47.1445 393.848 58.3014C391.668 62.0795 388.617 63.4546 384.16 65.4623C379.865 66.6743 377.503 66.1831 372.787 63.7774C366.717 60.8033 364.753 58.1376 363.941 52.4044V36.3978Z" fill="#986744"/>
<path d="M369.829 15.7578C376.644 15.946 379.484 17.2802 383.308 21.2337L361.826 24.1823C362.778 37.7015 363.101 45.2971 365.625 58.7227C365.499 62.3476 364.77 62.8845 361.826 64.6199C356.357 60.8758 354.453 58.3222 351.295 53.668C345.994 36.1556 349.506 30.2519 358.035 21.2337C361.82 18.0976 364.341 16.8016 369.829 15.7578Z" fill="#1E1913"/>
<path d="M363.52 48.1927C368.722 38.7171 372.713 27.3309 383.317 24.6042L383.738 21.2344L360.992 22.498L363.52 48.1927Z" fill="#1E1913"/>
<path d="M388.792 19.5478C385.869 18.9119 384.697 19.8064 383.316 21.633L397.638 26.2664V52.3824C395.957 55.0072 395.854 55.7095 389.214 62.9339L391.741 64.5979C395.914 63.7595 397.978 62.6552 401.429 59.9644C406.369 54.0624 409.325 50.9285 408.59 39.3244C407.295 31.8109 408.057 27.2963 398.059 21.633L398.02 21.6188C394.643 20.4098 393.408 19.9674 388.792 19.5478Z" fill="#1E1913"/>
<path d="M394.268 33.4499C391.282 29.0668 389.595 26.6171 383.316 24.6042V21.2344L399.323 25.4466L405.22 51.5625L392.162 59.987C392.148 59.6148 392.178 59.3614 393.005 57.8809C394.83 48.6754 395.805 43.5023 394.268 33.4499Z" fill="#1E1913"/>
<path d="M373.629 70.0931L366.047 64.6172C362.167 67.5168 359.886 68.8942 354.673 70.0931L349.198 68.4082C343.638 68.5293 342.679 70.6877 341.194 74.7266C338.985 80.3873 338.609 83.6778 339.088 89.4694C340.639 94.0664 342.007 95.9993 344.985 98.7364V107.161C345.087 108.363 345.674 108.388 347.091 108.003L349.198 113.479L350.882 117.27C350.933 120.469 350.869 122.281 350.04 125.274L379.526 130.328L390.056 99.5788L379.526 83.1511V70.9356L373.629 70.0931Z" fill="#2B2E35"/>
<path d="M388.371 72.6237L390.056 62.9355L391.32 61.6719L394.268 65.4629C403.725 66.189 408.872 67.3531 417.857 70.5176L415.751 95.3698L418.699 105.058L412.802 117.695L413.645 124.434L417.857 133.28C418.781 138.451 418.329 140.437 416.593 143.389L419.963 153.078L386.265 145.496L382.053 87.3666L390.056 83.9968L388.371 72.6237Z" fill="#2B2E35"/>
<path d="M441.446 171.611C431.044 155.764 426.304 146.717 419.121 131.174L436.391 127.383C439.858 142.377 443.16 150.255 446.922 163.608L451.977 181.721L441.446 171.611Z" fill="#986744"/>
<path d="M473.88 179.193C469.157 179.078 466.553 178.989 462.086 177.508L457.031 182.563L467.141 187.196C471.239 187.877 472.686 187.74 470.932 185.09L467.141 182.563H470.932L478.514 187.196C482.362 187.62 483.667 187.448 482.726 185.09C478.842 182.899 476.69 181.653 473.88 179.193Z" fill="#986744"/>
<path d="M357.201 82.3099C357.901 78.746 359.34 77.6112 363.098 76.4128C370.157 76.8223 374.271 76.4808 381.632 75.5703L380.79 86.5222C380.357 91.1396 379.105 92.4497 376.999 94.9466L371.102 93.683H360.571C359.65 91.3668 359.374 89.7854 359.307 86.5222L357.201 82.3099Z" fill="#986744"/>
<path d="M392.585 154.343C391.332 135.996 389.812 125.716 386.266 107.166L360.993 98.3203L352.99 119.382L339.932 149.288L341.617 173.298C347.024 180.503 350.083 184.297 358.044 186.777C368.436 188.701 374.146 188.964 384.581 186.777V178.774L392.585 154.343Z" fill="#111924"/>
<path d="M373.633 93.2624C371.686 91.978 370.487 91.3878 367.736 91.1563C364.682 91.1457 362.151 94.0598 357.205 100.844C355.184 105.675 354.696 108.094 354.678 112.639L356.363 167.819C357.188 172.736 358.552 173.69 360.974 175.386L360.996 175.401L359.732 170.768C367.885 168.632 372.131 168.69 377.424 173.716C379.857 150.959 385.153 131.386 386.691 107.584C387.137 104.202 386.613 102.583 385.006 99.1595C383.313 96.0999 382.162 94.4858 377.424 93.2624H373.633Z" fill="#25374D"/>
<path d="M427.124 86.9434C424.07 78.3346 422.767 71.922 417.857 70.5156L407.748 114.744L419.542 134.963C425.459 130.36 429.135 128.514 436.813 127.802L435.97 123.59V121.484L434.706 118.114V116.008L430.494 113.059L432.6 110.953L430.494 107.162C430.2 99.2922 428.992 94.854 427.124 86.9434Z" fill="#2B2E35"/>
<path d="M388.794 75.5646C385.998 75.2728 384.421 75.1286 381.633 75.5646L380.369 86.9377C381.73 87.8133 382.459 88.326 382.896 89.8863C383.572 95.8152 383.891 99.1366 386.688 104.629C388.288 107.154 388.83 107.636 388.794 105.893L387.53 102.944L386.688 89.8863L387.53 94.5197C388.627 99.7134 388.367 99.995 390.311 104.629C393.242 106.802 394.708 107.715 393.681 103.365C392.844 101.859 393.274 103.615 392.163 100.838L391.321 88.2014L397.218 107.156C399.028 109.064 399.642 108.815 400.167 107.156L395.954 86.9377L401.852 104.629C402.642 105.909 403.177 105.91 403.958 104.629C404.386 102.027 404.298 100.292 403.958 97.0471C402.112 91.6744 400.986 88.6444 398.482 83.1467C395.24 79.9436 393.224 78.1921 388.794 75.5646Z" fill="#986744"/>
<path d="M414.488 145.913C405.585 142.431 399.738 140.815 390.9 140.438L390.479 154.759L384.16 178.348V186.351C391.328 190.771 396.423 192.363 403.115 193.512L407.328 190.984C407.18 194.744 407.634 196.655 411.119 200.251C414.699 203.033 417.055 203.737 421.649 204.042L437.656 212.976C440.891 210.936 442.782 208.636 444.816 204.552L439.762 197.724L434.286 181.296C435.6 177.283 435.936 175.486 436.392 172.451C434.98 164.657 432.91 160.723 427.125 153.074C421.673 149.596 419.625 147.955 414.488 145.913Z" fill="#111924"/>
<path d="M440.605 169.926C437.901 173.718 437.55 176.134 436.814 180.456C437.412 184.113 437.032 185.978 435.551 188.459L419.123 202.781C416.96 207.765 417.409 210.025 419.123 213.733C422.334 217.185 424.451 217.741 428.39 217.945C431.769 217.454 433.241 216.891 435.551 215.839L440.605 206.993L460.403 188.459C465.248 180.194 466.966 175.28 466.3 162.343C464.507 157.351 462.526 155.675 454.927 157.289C448.161 160.634 444.237 162.326 440.605 169.926Z" fill="#5A636A"/>
<path d="M360.149 184.69L359.307 170.79C366.771 169.23 371.51 167.124 375.734 172.896V183.426L360.149 184.69Z" fill="#F9F9F9"/>
<path d="M362.674 177.925C360.577 179.849 360.077 181.012 359.726 183.401C359.542 190.878 359.089 195.257 358.041 203.199C358.819 205.446 360.582 204.495 361.411 206.147C374.725 209.971 382.071 211.944 383.736 203.199L377.417 191.404L376.154 178.768C375.482 178.115 374.998 177.766 373.626 177.083C369.33 175.533 366.925 176.03 362.674 177.925Z" fill="#48525B"/>
<path d="M379.947 42.7194L380.79 40.1921L368.574 38.0859C369.468 39.4443 367.928 44.1344 370.68 45.2468C373.83 46.8903 376.999 47.7741 379.105 45.2468L379.947 42.7194ZM379.947 42.7194C381.311 41.8972 382.071 41.6497 383.317 42.7194M383.317 42.7194V40.1921L395.111 41.0345C395.04 43.639 394.699 45.0245 391.742 46.9317C388.627 47.6299 383.738 47.7741 383.738 46.5104L383.317 42.7194Z" stroke="black"/>
<path d="M266.641 67.5664V47.7689L289.808 44.8203L291.493 62.5117L295.705 64.6179L277.592 83.9942L266.641 67.5664Z" fill="#AE8056"/>
<path d="M227.889 141.699L259.902 139.172L294.442 141.699H332.352L329.825 145.911L314.24 155.178L312.134 163.603L283.069 173.712L267.484 160.654L227.889 141.699Z" fill="#090A0C"/>
<path d="M241.789 70.9349C250.102 65.771 255.877 63.3339 266.641 59.1406C266.22 65.8802 269.798 68.0096 278.857 70.9349L280.963 75.5684C281.467 76.6091 281.721 76.4791 282.227 75.5684L283.49 69.25C286.185 67.4386 287.954 66.7189 291.494 65.8802C293.188 64.2499 290.651 64.6165 291.494 61.668C303.382 63.9746 309.975 66.7131 320.558 73.8835L315.082 79.3594L308.343 120.639L310.449 122.324V134.961L297.812 156.865C293.01 153.736 289.688 152.214 288.545 147.598C286.641 149.458 285.184 149.898 282.227 150.125C280.061 148.197 278.786 147.398 275.908 147.598L262.85 150.125L258.217 132.434L241.789 70.9349Z" fill="#C2EEFF"/>
<path d="M303.71 141.279L308.764 135.803L318.874 134.961L323.086 144.649C314.94 147.738 310.53 149.877 303.71 154.758C303.985 158.133 303.838 159.595 303.288 161.919C300.532 164.385 298.948 164.52 296.128 164.868L286.439 158.971C290.112 153.944 289.5 154.465 291.915 148.44C296.08 145.27 298.494 143.545 303.71 141.279Z" fill="#C8986D"/>
<path d="M329.824 116.012C327.898 94.3791 325.929 81.9696 319.715 73.0469L314.66 79.7865L308.342 120.645L310.448 122.33V130.755C304.699 133.343 304.391 135.943 304.551 140.864C305.928 137.326 306.843 135.557 310.448 136.231C317.567 138.369 320.641 140.342 321.821 147.604C325.492 143.291 326.649 140.232 327.718 134.124C329.563 126.977 330.111 123 329.824 116.012Z" fill="#C2EEFF"/>
<path d="M281.384 154.76C273.446 149.532 268.688 146.811 263.693 139.596L261.165 136.227L250.635 138.333L244.316 146.336C255.802 149.919 263.602 155.758 272.831 162.668L272.96 162.764C276.154 168.064 278.045 169.618 281.384 172.873C282.862 173.095 283.501 173.058 283.069 171.609C285.426 172.477 286.086 171.835 286.439 168.661L287.703 170.767C289.634 171.51 290.677 170.853 291.494 169.503V167.818L292.757 168.661C294.647 168.778 294.917 168.021 295.285 166.555L288.966 156.024C286.218 155.82 284.74 155.789 281.384 154.76Z" fill="#C8986D"/>
<path d="M234.203 75.5788C236.27 72.3044 237.861 71.1912 242.206 70.9453L258.212 117.701C257.545 123.14 257.312 126.291 254.843 130.338L259.897 132.023L264.109 134.971C264.828 137.532 264.687 138.691 264.109 140.447L262.003 138.762C255.832 139.731 252.832 141.55 248.945 146.766L245.58 148.023C242.151 144.376 240.71 142.071 238.836 137.499C235.222 129.361 234.016 124.032 232.096 114.331C231.09 99.6741 229.466 91.7373 234.203 75.5788Z" fill="#C2EEFF"/>
<path d="M333.195 141.702C337.893 138.345 340.799 137.881 345.831 136.227C351.475 137.278 354.224 138.629 357.626 143.809C359.496 148.372 359.479 151.128 358.889 156.024C353.481 167.442 328.235 177.948 286.439 197.725C284.103 190.713 279.724 186.759 276.993 182.904L271.696 185.931L230.837 176.243C225.526 172.333 223.78 170.142 221.149 166.134C217.434 161.203 215.374 158.933 214.83 153.076C213.673 147.439 215.892 144.492 221.149 142.124C223.943 141.504 225.521 141.345 228.31 142.124C244.183 148.096 252.507 152.876 267.484 161.079L272.959 165.291L280.01 171.681C294.481 160.956 333.195 141.702 333.195 141.702Z" fill="#272E36"/>
<path d="M256.531 182.564L272.117 179.615L275.486 178.352L284.753 193.937L258.637 196.043L256.531 182.564Z" fill="#080659"/>
<path d="M262.431 184.67L257.798 182.564C249.409 179.896 244.705 178.944 236.316 178.352C229.19 185.976 227.821 190.658 231.682 200.255C240.911 200.115 245.609 199.758 253.586 196.464C258.347 196.788 261.119 196.585 266.222 195.622C266.588 191.582 266.422 188.469 262.431 184.67Z" fill="#625141"/>
<path d="M329.404 177.086L320.137 181.298L302.445 190.144C310.109 190.666 314.521 191.415 322.664 195.199C327.749 196.792 330.194 196.374 334.458 195.199C336.177 187.865 337.861 184.997 329.404 177.086Z" fill="#625141"/>
<path d="M269.008 50.4072C265.964 47.4907 264.594 45.8716 263.847 42.8077V31.8308C263.048 24.165 265.323 21.1056 271.589 16.632C275.859 14.8305 276.81 14.9083 280.964 14.9168C287.788 16.3024 291.073 18.2839 292.145 22.5162C293.522 26.2871 293.63 27.1739 293.522 30.1421C294.698 36.2453 294.864 39.7206 293.522 45.7631C292.381 47.8716 290.769 49.3546 286.211 52.0959C282.332 55.3477 279.156 55.8709 269.008 50.4072Z" fill="#C8986D"/>
<path d="M296.546 35.1371C296.546 35.1371 294.861 33.4523 294.472 36.0162C294.083 38.5802 293.176 45.2465 293.176 45.2465C293.016 46.6877 293.937 46.3549 296.027 45.2465C297.954 40.4113 298.007 38.23 296.546 35.1371Z" fill="#C8986D"/>
<path d="M260.743 35.5526L263.691 36.8162L264.955 45.662C263.94 45.8926 263.094 45.949 261.164 45.2407C259.712 42.8731 259.021 41.5147 259.058 38.5011C259.349 36.2687 259.787 35.4705 260.743 35.5526Z" fill="#C8986D"/>
<g clip-path="url(#clip0_201_2153)">
<path d="M454.765 56.954L453.918 55.0755C450.9 48.4221 448.911 44.0227 450.428 40.2337C451.671 37.1282 454.941 35.627 457.87 36.7991C459.524 37.4613 460.786 38.9109 461.311 40.6021C462.858 39.7406 464.772 39.562 466.426 40.2242C469.354 41.3963 470.685 44.7394 469.442 47.845C467.925 51.6339 463.45 53.4456 456.675 56.1792L454.765 56.954Z" fill="#FEC601"/>
</g>
<g clip-path="url(#clip1_201_2153)">
<path d="M29.5207 35.0427L26.8496 34.3509C17.3754 31.9167 11.1156 30.301 8.43467 25.5392C6.23727 21.6363 7.41485 16.9644 11.0948 14.8925C13.1738 13.722 15.7451 13.6217 17.9506 14.4925C18.3498 12.1552 19.7691 10.0087 21.848 8.83823C25.528 6.76633 30.1332 8.18242 32.3306 12.0853C35.0116 16.8471 33.1467 23.0371 30.3145 32.4001L29.5207 35.0427Z" fill="#EDC5FF"/>
</g>
<defs>
<clipPath id="clip0_201_2153">
<rect width="24.5771" height="25.9815" fill="white" transform="translate(451.945 30.9297) rotate(21.816)"/>
</clipPath>
<clipPath id="clip1_201_2153">
<rect width="32.9076" height="34.7881" fill="white" transform="translate(0 16.1484) rotate(-29.3803)"/>
</clipPath>
</defs>
</svg>
