<svg width="87" height="67" viewBox="0 0 87 67" fill="none" xmlns="http://www.w3.org/2000/svg">
<circle cx="33.5" cy="33.5" r="31.5" stroke="#2CA3D1" stroke-width="4"/>
<path d="M21 47C28.4293 51.8905 39.0724 52.0423 46.5 47" stroke="#2CA3D1" stroke-width="6" stroke-linecap="round"/>
<path d="M17 31.2344C20.5873 28.7329 22.6614 27.8132 27.0221 31.2344" stroke="#2CA3D1" stroke-width="4" stroke-linecap="round"/>
<path d="M41 31.2344C44.5873 28.7329 46.6614 27.8132 51.0221 31.2344" stroke="#2CA3D1" stroke-width="4" stroke-linecap="round"/>
<path d="M69.5 19.3438L68.5938 18.5188C65.375 15.6 63.25 13.6687 63.25 11.3125C63.25 9.38125 64.7625 7.875 66.6875 7.875C67.775 7.875 68.8187 8.38125 69.5 9.175C70.1813 8.38125 71.225 7.875 72.3125 7.875C74.2375 7.875 75.75 9.38125 75.75 11.3125C75.75 13.6687 73.625 15.6 70.4062 18.5188L69.5 19.3438Z" fill="#2CA3D1"/>
<path d="M82.0002 12.8958L81.396 12.3458C79.2502 10.4 77.8335 9.1125 77.8335 7.54167C77.8335 6.25417 78.8418 5.25 80.1252 5.25C80.8502 5.25 81.546 5.5875 82.0002 6.11667C82.4543 5.5875 83.1502 5.25 83.8752 5.25C85.1585 5.25 86.1668 6.25417 86.1668 7.54167C86.1668 9.1125 84.7502 10.4 82.6043 12.3458L82.0002 12.8958Z" fill="#2CA3D1"/>
</svg>
