<svg width="152" height="62" viewBox="0 0 152 62" fill="none" xmlns="http://www.w3.org/2000/svg">
<path d="M149.719 49.2805C150.165 48.9552 150.263 48.3297 149.938 47.8834L144.638 40.6097C144.312 40.1634 143.687 40.0652 143.241 40.3905C142.794 40.7157 142.696 41.3412 143.021 41.7876L147.733 48.2531L141.267 52.9645C140.821 53.2897 140.723 53.9152 141.048 54.3616C141.373 54.8079 141.999 54.9061 142.445 54.5809L149.719 49.2805ZM3.03192 33.7044C3.77094 32.9658 4.50416 32.2431 5.23169 31.5361L3.83779 30.1018C3.10345 30.8155 2.3636 31.5447 1.61815 32.2897L3.03192 33.7044ZM9.52911 27.4795C11.0685 26.0702 12.5816 24.7333 14.0693 23.4661L12.7725 21.9435C11.2657 23.2269 9.73477 24.5797 8.17863 26.0043L9.52911 27.4795ZM18.7044 19.6778C20.3252 18.4103 21.9149 17.2284 23.4749 16.1286L22.3225 14.494C20.734 15.6139 19.1178 16.8156 17.4724 18.1023L18.7044 19.6778ZM28.4202 12.852C30.1756 11.7653 31.8922 10.7858 33.5723 9.90777L32.6459 8.13526C30.9204 9.03706 29.1617 10.0407 27.3674 11.1515L28.4202 12.852ZM38.9467 7.38666C40.8551 6.59619 42.7154 5.93994 44.5318 5.40767L43.9693 3.48838C42.0808 4.0418 40.1528 4.72231 38.1813 5.5389L38.9467 7.38666ZM50.2826 4.10169C52.2785 3.78274 54.2236 3.61437 56.1243 3.58153L56.0898 1.58183C54.094 1.61631 52.055 1.79307 49.967 2.12675L50.2826 4.10169ZM61.9738 3.90897C63.9323 4.16275 65.8508 4.55637 67.7373 5.0725L68.2651 3.14339C66.295 2.6044 64.286 2.19186 62.2308 1.92555L61.9738 3.90897ZM73.3208 6.97589C75.1305 7.71167 76.917 8.55035 78.6883 9.47535L79.6141 7.70254C77.7936 6.75182 75.9494 5.88563 74.0741 5.12318L73.3208 6.97589ZM83.8536 12.4247C85.5281 13.4571 87.1939 14.5527 88.8582 15.6968L89.9912 14.0486C88.305 12.8895 86.611 11.7752 84.9032 10.7223L83.8536 12.4247ZM93.734 19.1716C95.3324 20.3448 96.9337 21.5477 98.5452 22.7674L99.7522 21.1727C98.1375 19.9505 96.5273 18.741 94.9175 17.5593L93.734 19.1716ZM103.345 26.4095C104.94 27.6175 106.55 28.8284 108.18 30.0283L109.366 28.4178C107.747 27.2255 106.144 26.0207 104.552 24.815L103.345 26.4095ZM113.092 33.5546C114.744 34.7057 116.422 35.8339 118.128 36.9264L119.207 35.242C117.525 34.1657 115.87 33.0522 114.235 31.9135L113.092 33.5546ZM123.323 40.0731C125.08 41.0738 126.871 42.0271 128.702 42.9204L129.579 41.1229C127.79 40.2501 126.036 39.317 124.313 38.3353L123.323 40.0731ZM134.276 45.3905C136.15 46.1364 138.067 46.8127 140.032 47.4078L140.612 45.4936C138.704 44.9159 136.84 44.2584 135.015 43.5322L134.276 45.3905ZM145.949 48.9117C146.945 49.1167 147.954 49.3 148.975 49.4602L149.285 47.4844C148.295 47.3291 147.318 47.1515 146.352 46.9528L145.949 48.9117ZM150.308 50.0887C151.2 49.4382 151.397 48.1871 150.746 47.2945L140.145 32.7471C139.495 31.8544 138.244 31.6581 137.351 32.3086C136.459 32.9591 136.262 34.2101 136.913 35.1028L146.336 48.0338L133.405 57.4566C132.512 58.1072 132.316 59.3582 132.966 60.2509C133.617 61.1436 134.868 61.3399 135.76 60.6894L150.308 50.0887ZM3.73881 34.4117C4.47461 33.6764 5.20452 32.9569 5.92863 32.2532L3.14084 29.3847C2.40309 30.1017 1.65993 30.8342 0.911262 31.5824L3.73881 34.4117ZM10.2043 28.2171C11.7354 26.8155 13.2395 25.4865 14.7177 24.2274L12.1241 21.1823C10.6078 22.4737 9.06789 23.8345 7.5034 25.2667L10.2043 28.2171ZM19.3205 20.4655C20.929 19.2076 22.5053 18.0357 24.0511 16.9459L21.7463 13.6767C20.1436 14.8066 18.5141 16.0182 16.8564 17.3146L19.3205 20.4655ZM28.9465 13.7023C30.6826 12.6275 32.3781 11.6602 34.0355 10.794L32.1827 7.249C30.4345 8.16267 28.6548 9.17842 26.841 10.3013L28.9465 13.7023ZM39.3294 8.31054C41.2062 7.53313 43.0327 6.88901 44.813 6.36731L43.6881 2.52873C41.7635 3.09273 39.8016 3.78537 37.7986 4.61502L39.3294 8.31054ZM50.4404 5.08916C52.3902 4.77757 54.2883 4.6134 56.1416 4.58138L56.0725 0.581977C54.0292 0.617282 51.9433 0.798238 49.8092 1.13928L50.4404 5.08916ZM61.8453 4.90068C63.7555 5.14819 65.6287 5.53236 67.4734 6.03705L68.529 2.17884C66.5171 1.62842 64.4629 1.20642 62.3593 0.933842L61.8453 4.90068ZM72.9442 7.90224C74.721 8.62469 76.4788 9.44961 78.2254 10.3618L80.077 6.81614C78.2319 5.85256 76.3588 4.97261 74.4508 4.19682L72.9442 7.90224ZM83.3288 13.2759C84.9866 14.298 86.6383 15.3843 88.2917 16.5208L90.5576 13.2245C88.8605 12.0579 87.1525 10.9342 85.428 9.87104L83.3288 13.2759ZM93.1423 19.9777C94.735 21.1468 96.3318 22.3463 97.9417 23.5648L100.356 20.3754C98.7393 19.1519 97.1248 17.939 95.5092 16.7532L93.1423 19.9777ZM102.741 27.2068C104.338 28.416 105.952 29.6299 107.587 30.8335L109.959 27.6125C108.345 26.4241 106.746 25.2222 105.156 24.0178L102.741 27.2068ZM112.52 34.3752C114.182 35.5324 115.87 36.668 117.589 37.7686L119.746 34.3998C118.077 33.3316 116.433 32.2255 114.807 31.093L112.52 34.3752ZM122.828 40.942C124.601 41.9522 126.412 42.9156 128.264 43.8191L130.018 40.2242C128.249 39.3615 126.515 38.4386 124.808 37.4664L122.828 40.942ZM133.906 46.3196C135.805 47.0754 137.749 47.7612 139.742 48.3648L140.901 44.5366C139.022 43.9674 137.185 43.3195 135.385 42.6031L133.906 46.3196ZM145.748 49.8912C146.759 50.0993 147.783 50.2854 148.82 50.4481L149.44 46.4965C148.466 46.3437 147.504 46.1689 146.554 45.9733L145.748 49.8912Z" fill="#FEC601"/>
</svg>
