<svg width="53" height="53" viewBox="0 0 53 53" fill="none" xmlns="http://www.w3.org/2000/svg">
<circle cx="26.5" cy="26.5" r="26.5" fill="#BE65E6"/>
<path d="M32.6942 18.976H23.6222V23.764C24.0142 23.2787 24.5742 22.8867 25.3022 22.588C26.0302 22.2707 26.8049 22.112 27.6262 22.112C29.1196 22.112 30.3422 22.4387 31.2942 23.092C32.2462 23.7453 32.9369 24.5853 33.3662 25.612C33.7956 26.62 34.0102 27.7027 34.0102 28.86C34.0102 31.0067 33.3942 32.7333 32.1622 34.04C30.9489 35.3467 29.2129 36 26.9542 36C24.8262 36 23.1276 35.468 21.8582 34.404C20.5889 33.34 19.8702 31.9493 19.7022 30.232H23.5102C23.6782 30.9787 24.0516 31.576 24.6302 32.024C25.2276 32.472 25.9836 32.696 26.8982 32.696C27.9996 32.696 28.8302 32.3507 29.3902 31.66C29.9502 30.9693 30.2302 30.0547 30.2302 28.916C30.2302 27.7587 29.9409 26.8813 29.3622 26.284C28.8022 25.668 27.9716 25.36 26.8702 25.36C26.0862 25.36 25.4329 25.556 24.9102 25.948C24.3876 26.34 24.0142 26.8627 23.7902 27.516H20.0382V15.532H32.6942V18.976Z" fill="white"/>
</svg>
