<svg width="336" height="404" viewBox="0 0 336 404" fill="none" xmlns="http://www.w3.org/2000/svg">
<path d="M237.199 186.545C237.199 226.788 246.779 236.17 225.658 236.17C204.537 236.17 167.585 201.046 167.585 160.803C167.585 120.56 125.479 82.4055 182.484 88.059C227.337 103.01 237.199 146.302 237.199 186.545Z" fill="#0C1A30"/>
<path d="M118.297 184.498C118.297 223.317 110.335 232.366 131.486 232.366C152.636 232.366 169.783 200.898 169.783 162.079C169.783 123.261 209.345 85.733 152.259 91.1863C110.919 107.759 118.297 145.68 118.297 184.498Z" fill="#0C1A30"/>
<path d="M190.932 189.724C187.639 183.99 186.495 180.572 190.932 172.562H148.029V215.466H161.89H175.751C184.273 210.781 187.786 205.449 190.932 189.724Z" fill="#CE7C4F"/>
<path d="M206.76 103.986C191.88 94.9073 182.478 91.8208 161.69 93.8593C148.636 101.981 138.269 105.9 139.481 122.341C137.763 143.413 136.363 155.556 139.481 172.974L139.59 173.08C141.373 174.808 144.946 178.27 146.013 178.671C149.829 180.102 159.575 186.108 161.69 188.164C176.013 185.266 181.676 180.867 191.737 172.974L208.72 152.721L211.986 146.392C217.017 131.075 213.348 121.384 206.857 104.24L206.76 103.986Z" fill="#E09C77"/>
<path d="M205.885 149.809C200.813 148.319 198.745 147.946 196.785 151.759C192.382 158.82 190.936 170.61 192.885 170.61C194.833 170.61 196.766 170.721 200.685 168.01C204.585 164.11 206.296 161.339 206.535 153.059C206.982 151.375 208.221 151.182 205.885 149.809Z" fill="#E09C77"/>
<path d="M135.958 143.841C137.187 142.189 137.939 142.357 139.351 143.841C142.068 153.347 142.436 167.037 139.351 167.349C136.266 167.66 136.768 163.622 135.958 161.304C135.148 158.986 131.373 151.127 135.958 143.841Z" fill="#E09C77"/>
<path d="M240.337 205.761C222.98 192.72 210.833 191.721 188.983 186.217C161.338 226.024 160.101 219.487 136.504 180.367L121.671 194.78C121.671 194.78 116.275 214.683 116.275 235.959C116.275 257.234 108.181 266.156 110.881 288.119C110.646 297.481 106.832 307.154 110.879 308.708L125.716 340.278H232.92L240.337 205.761Z" fill="#FEC601"/>
<path d="M77.1774 242.769C72.9374 250.567 71.9089 254.974 73.2771 262.92L101.229 280.471C104.307 282.288 112.048 281.934 115.53 280.471C117.208 275.602 116.736 272.055 115.53 265.52L133.731 208.966L118.78 197.266C114.87 198.258 113.049 199.609 110.98 204.416C109.316 203.078 108.493 203.34 107.079 204.416C101.776 211.547 92.5211 214.228 92.7791 221.317L86.9281 238.869C81.3754 238.676 78.7494 239.038 77.1774 242.769Z" fill="#FEC601"/>
<path d="M62.875 281.782C82.4185 289.463 93.3553 293.821 110.978 306.483L123.979 322.253L162.982 348.086C154.856 370.087 153.543 373.22 151.931 376.688C112.258 367.364 90.5982 365.718 46.6238 329.885C39.7777 326.312 29.7227 322.734 29.7227 309.733C32.1661 298.208 34.1199 291.97 43.3736 283.082C49.4103 279.634 56.1694 280.912 62.875 281.782Z" fill="#C2EEFF"/>
<path d="M259.838 372.774L292.34 340.922L244.887 344.172L259.838 372.774Z" fill="#7CB3C8"/>
<path d="M177.934 355.012L161.986 348.078L157.133 363.679L177.934 355.012Z" fill="#F0EFEF"/>
<path d="M259.839 364.979L252.688 354.578L180.535 387.08V391.631C174.97 399.358 204.981 394.712 252.688 399.431C257.82 399.718 260.032 397.576 263.739 392.931C264.897 382.125 265.289 376.056 259.839 364.979Z" fill="#F0EFEF"/>
<path d="M230.588 326.633L148.033 333.783H139.582L180.535 364.986L230.588 326.633Z" fill="#7CB3C8"/>
<path d="M154.533 211.566L157.784 202.465V188.164H148.033V191.414L144.133 208.966C143.738 212.303 144.902 212.497 148.033 211.566L151.933 205.715V211.566C152.197 212.526 152.817 212.463 154.533 211.566Z" fill="#CB8E6C"/>
<path d="M252.04 311.034C257.133 270.011 255.906 246.754 240.339 204.426C216.25 198.475 209.821 203.962 212.387 231.078L216.937 238.879V297.383C213.723 304.175 209.93 306.611 203.286 311.034L153.883 320.785H147.383C144.654 313.087 142.646 308.696 137.632 300.633L125.931 297.383H119.431C116.375 296.054 114.685 296.171 111.63 297.383C109.523 299.923 109.229 301.343 111.63 303.883C108.829 306.523 110.019 308.154 111.63 311.034H116.83C125.382 326.817 131.995 332.883 147.383 337.686L226.038 329.885C238.428 329.187 243.564 323.387 252.04 311.034Z" fill="#E09C77"/>
<path d="M240.988 205.068C237.075 199.17 229.511 197.751 219.537 200.517C213.476 205.555 211.066 209.086 210.436 218.069L214.987 298.024C214.054 302.749 206.305 307.384 204.586 309.725L207.186 316.876L210.436 331.176H231.238C241.407 326.638 247.535 321.114 253.989 309.725C262.469 263.572 262.774 237.079 240.988 205.068Z" fill="#FEC601"/>
<path d="M144.779 168.012C142.145 167.413 141.095 169.291 140.229 171.262L161.03 187.513C161.584 187.787 161.854 187.503 162.33 186.863L161.03 184.263C155.098 177.899 151.64 174.335 144.779 168.012Z" fill="#DC8453"/>
<path d="M159.734 186.212L144.783 171.261C141.016 170.388 139.419 171.237 136.982 173.861L112.28 205.063L65.477 273.318C63.6819 280.724 63.6947 284.457 67.4272 289.569L81.7282 298.02C94.4935 296.702 98.689 289.641 103.83 272.018L130.482 205.063C131.495 205.724 132.064 205.489 133.082 205.063C140.85 200.592 143.932 196.318 149.983 189.462H155.183L156.483 195.313L151.933 205.063C151.687 207.844 152.221 208.156 155.183 205.063L162.334 194.012C161.773 189.819 161.728 186.782 159.734 186.212Z" fill="#E09C77"/>
<path d="M184.434 102.32C184.434 112.839 173.083 125.052 159.082 125.052C145.081 125.052 136.98 156.386 129.83 141.026C129.83 130.508 114.231 109.855 148.033 90.01C167.535 85.7097 184.434 91.8011 184.434 102.32Z" fill="#0C1A30"/>
<path d="M148.031 101.654C148.031 111.957 152.888 133.385 169.124 133.385C185.36 133.385 198.811 170.619 207.858 160.389C225.196 151.363 215.481 102.317 197.32 94.358C175.266 81.0922 148.031 91.3517 148.031 101.654Z" fill="#0C1A30"/>
<path d="M192.886 383.177L183.136 349.375C183.136 349.375 172.085 355.225 161.034 359.126C149.983 363.026 141.53 365.174 142.183 366.276C135.649 364.213 132.089 363.736 125.932 363.676C109.214 363.03 101.502 361.078 88.8791 356.526C77.7944 356.224 72.9081 357.864 70.6778 369.526C67.6635 380.756 69.2247 385.856 73.9281 394.228C81.0997 402.843 85.9988 403.855 95.3796 402.679L166.235 398.128C177.81 395.217 183.334 391.156 192.886 383.177Z" fill="#F0EFEF"/>
<path d="M317.043 304.518C315.437 293.809 311.144 290.138 299.492 286.317C286.294 284.1 279.976 285.083 271.54 292.817C244.404 316.999 228.243 328.971 196.134 344.821H191.584C187.203 344.668 170.578 351.542 169.482 355.871C170.272 371.679 172.049 379.9 181.183 391.624C252.293 363.798 304.374 342.694 313.142 322.719C315.447 318.063 316.463 314.612 317.043 304.518Z" fill="#C2EEFF"/>
<path d="M216.281 267.466C217.581 294.768 222.83 290.217 218.881 290.217C214.932 290.217 211.73 280.031 211.73 267.466C211.73 254.9 214.932 244.714 218.881 244.714C222.83 244.714 214.981 240.164 216.281 267.466Z" fill="#E1B61C"/>
<path d="M155.631 125.387C155.964 128.6 156.733 130.879 156.376 130.916C156.019 130.952 155.46 128.377 155.127 125.163C154.795 121.949 154.815 119.314 155.172 119.277C155.529 119.24 155.299 122.173 155.631 125.387Z" fill="#0C1A30"/>
<path d="M120.974 63.581L121.01 63.6626L121.073 63.7264L127.898 70.6535C128.998 71.7693 127.866 73.6115 126.374 73.1352L110.274 67.9972L110.092 67.9389L109.917 68.0177L43.6296 97.9045C34.8188 101.877 24.4558 97.9548 20.4833 89.144L7.85422 61.1334C3.88169 52.3226 7.80392 41.9596 16.6148 37.9871L77.7999 10.4007C86.6107 6.42816 96.9737 10.3504 100.946 19.1612L120.974 63.581Z" stroke="#FEC601"/>
<path d="M239.595 95.9396L239.569 96.0253L239.515 96.0967L235.646 101.216C234.701 102.466 236.063 104.145 237.481 103.478L248.575 98.2585L248.749 98.1768L248.933 98.2322L302.44 114.361C311.693 117.151 321.456 111.91 324.246 102.657L329.541 85.0897C332.331 75.836 327.09 66.0731 317.837 63.2837L271.891 49.4339C262.637 46.6445 252.874 51.8848 250.085 61.1385L239.595 95.9396Z" stroke="#C2EEFF"/>
<g clip-path="url(#clip0_201_2066)">
<path d="M67.3381 69.8902L64.0894 68.7313C52.5645 64.6455 44.9507 61.9367 42.143 55.7094C39.8417 50.6054 41.8282 44.9197 46.6407 42.7498C49.3595 41.524 52.5721 41.6855 55.2211 43.0154C55.9784 40.1497 57.9846 37.6352 60.7033 36.4094C65.5159 34.2396 71.092 36.5156 73.3933 41.6197C76.201 47.847 73.1897 55.3463 68.6207 66.6883L67.3381 69.8902Z" fill="#FEC601"/>
</g>
<circle cx="266.206" cy="75.8079" r="6.46419" fill="#C2EEFF"/>
<circle cx="288.538" cy="82.8548" r="6.46419" fill="#C2EEFF"/>
<circle cx="310.868" cy="87.5579" r="6.46419" fill="#C2EEFF"/>
<defs>
<clipPath id="clip0_201_2066">
<rect width="41.1357" height="43.4863" fill="white" transform="translate(32.6875 43.0781) rotate(-24.2691)"/>
</clipPath>
</defs>
</svg>
