<svg width="28" height="28" viewBox="0 0 28 28" fill="none" xmlns="http://www.w3.org/2000/svg">
<path d="M14.2606 13.5814L14.0004 13.838L13.7391 13.5814C13.2535 13.1019 12.5985 12.8331 11.9161 12.8331C11.2338 12.8331 10.5788 13.1019 10.0932 13.5814C9.85222 13.8132 9.66049 14.0913 9.52952 14.3991C9.39856 14.7068 9.33105 15.0378 9.33105 15.3722C9.33105 15.7066 9.39856 16.0376 9.52952 16.3453C9.66049 16.653 9.85222 16.9312 10.0932 17.163L14.0004 21.0002L17.9076 17.163C18.1486 16.9312 18.3403 16.653 18.4713 16.3453C18.6022 16.0376 18.6697 15.7066 18.6697 15.3722C18.6697 15.0378 18.6022 14.7068 18.4713 14.3991C18.3403 14.0913 18.1486 13.8132 17.9076 13.5814C17.4218 13.1019 16.7666 12.833 16.0841 12.833C15.4015 12.833 14.7464 13.1019 14.2606 13.5814Z" fill="#1D1D1D"/>
<path d="M25.3252 13.1751L14.8252 2.67508C14.717 2.56664 14.5884 2.48061 14.4469 2.42192C14.3053 2.36322 14.1536 2.33301 14.0004 2.33301C13.8472 2.33301 13.6955 2.36322 13.5539 2.42192C13.4124 2.48061 13.2838 2.56664 13.1756 2.67508L2.67557 13.1751C2.51246 13.3382 2.40138 13.5461 2.35639 13.7724C2.31139 13.9987 2.3345 14.2332 2.42278 14.4463C2.51106 14.6595 2.66056 14.8417 2.85237 14.9699C3.04418 15.0981 3.26969 15.1665 3.5004 15.1666H4.66707V23.3332C4.66707 24.6201 5.71357 25.6666 7.0004 25.6666H21.0004C22.2872 25.6666 23.3337 24.6201 23.3337 23.3332V15.1666H24.5004C24.7311 15.1665 24.9566 15.0981 25.1484 14.9699C25.3402 14.8417 25.4897 14.6595 25.578 14.4463C25.6663 14.2332 25.6894 13.9987 25.6444 13.7724C25.5994 13.5461 25.4883 13.3382 25.3252 13.1751ZM22.0004 23.9971H6.00037V12.4971L14.0004 4.49707L22.0004 12.4971V17.9971V23.9971Z" fill="#1D1D1D"/>
</svg>
