<svg width="21" height="23" viewBox="0 0 21 23" fill="none" xmlns="http://www.w3.org/2000/svg">
<path d="M11.7084 1.84408C11.7084 1.52361 11.5811 1.21626 11.3545 0.989655C11.1279 0.763048 10.8205 0.635742 10.5 0.635742C10.1796 0.635742 9.87223 0.763048 9.64562 0.989655C9.41902 1.21626 9.29171 1.52361 9.29171 1.84408L9.28809 11.5144C9.28809 11.8348 9.41539 12.1422 9.642 12.3688C9.86861 12.5954 10.1759 12.7227 10.4964 12.7227C10.8169 12.7227 11.1242 12.5954 11.3508 12.3688C11.5774 12.1422 11.7048 11.8348 11.7048 11.5144L11.7084 1.84528V1.84408Z" fill="#737373"/>
<path d="M0.833008 12.6983C0.833008 10.0279 1.91447 7.61125 3.66413 5.86279L5.37272 7.57138C4.35874 8.58529 3.66819 9.87711 3.38841 11.2835C3.10863 12.6899 3.25218 14.1476 3.8009 15.4724C4.34962 16.7972 5.27887 17.9295 6.47114 18.7262C7.6634 19.5229 9.06514 19.9481 10.4991 19.9481C11.933 19.9481 13.3347 19.5229 14.527 18.7262C15.7193 17.9295 16.6485 16.7972 17.1972 15.4724C17.746 14.1476 17.8895 12.6899 17.6097 11.2835C17.3299 9.87711 16.6394 8.58529 15.6254 7.57138L17.3352 5.86279C18.4593 6.98689 19.2887 8.37084 19.7502 9.89206C20.2116 11.4133 20.2907 13.0248 19.9806 14.584C19.6704 16.1431 18.9806 17.6016 17.9721 18.8305C16.9636 20.0593 15.6677 21.0205 14.199 21.6288C12.7303 22.2371 11.1343 22.4739 9.5523 22.3181C7.97029 22.1623 6.45111 21.6188 5.12933 20.7356C3.80755 19.8525 2.72397 18.657 1.97457 17.2551C1.22516 15.8531 0.833066 14.288 0.833008 12.6983Z" fill="#737373"/>
</svg>
