<svg width="67" height="67" viewBox="0 0 67 67" fill="none" xmlns="http://www.w3.org/2000/svg">
<circle cx="33.5" cy="33.5" r="31.5" stroke="#2CA3D1" stroke-width="4"/>
<circle cx="21.5" cy="30.5" r="3.5" fill="#2CA3D1"/>
<circle cx="44.5" cy="30.5" r="3.5" fill="#2CA3D1"/>
<path d="M44.5322 20.1953C45.8085 23.9497 47.3305 25.2032 51.9899 25.1671" stroke="#2CA3D1" stroke-width="4" stroke-linecap="round"/>
<path d="M22.7588 20C21.3769 23.8249 19.7888 25.1223 14.9998 25.1726" stroke="#2CA3D1" stroke-width="4" stroke-linecap="round"/>
<path d="M19 48.7017C30.7872 42.8543 37.2044 42.0249 48.0151 48.7017" stroke="#2CA3D1" stroke-width="4" stroke-linecap="round"/>
<path fill-rule="evenodd" clip-rule="evenodd" d="M48.0475 37.2236L45.88 33L43.7125 37.2236C43.2688 37.7302 43 38.3937 43 39.12C43 40.7106 44.2894 42 45.88 42C47.4706 42 48.76 40.7106 48.76 39.12C48.76 38.3937 48.4912 37.7302 48.0475 37.2236Z" fill="#2CA3D1"/>
</svg>
