<svg width="415" height="315" viewBox="0 0 415 315" fill="none" xmlns="http://www.w3.org/2000/svg">
<rect width="414.717" height="314" rx="18" fill="#FEC601"/>
<path d="M292.931 100.582C297.2 78.3909 296.216 73.0683 288.798 66.7621V50.6037L257.608 46.4702L219.279 64.8832L200.49 95.6969L238.444 135.905H276.397L283.912 123.88C284.854 123.091 284.495 122.436 294.81 123.88C294.937 115.793 294.67 111.375 288.798 105.843L292.931 100.582Z" fill="#AF857A"/>
<path d="M245.959 88.1809C256.209 82.7669 259.768 78.286 259.863 65.6343C267.59 73.5817 272.083 74.0835 280.53 65.6343C292.864 70.1122 295.006 77.006 295.186 92.6902L303.829 80.2896C314.171 70.4639 311.222 64.5654 303.829 53.9853C303.825 45.3035 297.506 43.481 286.543 40.0816C278.601 36.1058 274.204 34.4909 266.627 35.5723L265.499 29.9356C257.049 22.774 252.141 23.2328 243.329 25.4263C235.848 24.4078 232.47 25.029 229.425 29.9356L223.788 37.4511L217.776 32.9418C206.24 29.5735 202.397 32.5257 196.732 40.0816V49.1002L188.09 61.125L223.788 92.6902C225.818 83.0485 229.82 81.1231 245.959 88.1809Z" fill="#D9D9D9"/>
<path d="M115.941 173.106C125.617 150.486 132.22 145.839 144.5 141.166L196.357 151.688L218.903 173.859L206.503 208.43L173.059 314.398H106.17C106.046 302.579 105.822 294.252 109.928 283.21L102.037 194.527C104.099 185.413 111.686 181.819 115.941 173.106Z" fill="#C2EEFF"/>
<path d="M133.602 92.6528L140.366 77.246L165.919 63.3423L196.357 68.9789L212.139 104.678V140.376C213.118 149.511 213.879 153.154 215.145 160.292C215.145 160.292 209.132 178.294 201.617 167.056C194.102 155.818 185.239 159.617 173.81 162.547C168.472 160.621 165.908 157.284 161.409 153.153C147.733 137.009 140.972 127.468 133.602 108.435C132.18 102.278 132.631 98.8045 133.602 92.6528Z" fill="#D8AB9D"/>
<path d="M165.92 77.2569C156.257 76.293 152.09 77.1238 146.379 80.2631L144.125 81.3904C136.95 89.6257 134.156 94.7652 132.851 105.064C141.828 129.14 153.183 141.464 173.059 162.182H144.125L129.469 148.654C123.587 136.258 121.596 129.535 120.827 115.962C118.389 101.811 118.763 94.5226 123.081 80.2631C124.086 72.573 126.168 69.0492 133.603 63.7289C136.979 63.2 138.869 63.3374 142.246 63.7289L144.125 56.5892C144.9 53.257 145.766 51.3399 148.258 48.6979C170.634 38.6927 183.113 48.2174 205.376 63.7289C228.911 85.4571 239.539 98.996 255.73 124.605L282.034 126.859C300.29 137.943 301.696 143.109 298.944 151.66L296.69 180.971L271.512 178.365L241.075 138.884L247.839 154.667L228.298 175.334L212.891 151.309C210.373 127.782 209.69 115.104 205.376 104.688C203.961 94.8247 202.293 89.6879 197.485 80.2631C187.188 75.7495 181.541 73.856 172.308 75.0022C178.393 85.7446 186.663 88.5995 202.37 93.0394C187.83 91.4917 179.749 89.5802 165.92 77.2569Z" fill="#2B221E"/>
<path d="M247.838 138.867C241.663 138.362 239.494 134.356 238.82 136.282L212.14 242.957L200.49 314.397H329.757C328.378 286.837 326.651 268.475 324.497 239.575C323.237 233.158 321.678 230.125 318.484 224.92L288.422 177.572L280.155 156.904C269.633 143.842 262.502 140.225 247.838 138.867Z" fill="#949494"/>
<path d="M105.043 162.916C96.2441 172.595 93.0512 178.374 89.2607 188.845L106.546 192.978L121.202 170.808V162.916C123.338 159.588 125.618 158.4 129.469 156.152V151.643C125.654 149.745 123.513 150.191 119.699 151.643L111.056 160.662L105.043 162.916Z" fill="#D8AB9D"/>
<path d="M227.492 140.619C236.817 134.149 236.682 135.761 239.544 135.584L251.596 189.419C220.385 241.474 185.661 274.974 143.506 297.862C134.821 296.991 131.086 295.741 128.818 290.891C106.084 255.188 99.2291 233.985 84 196.777C85.0183 190.356 85.6051 186.77 87.7662 184.384C96.5252 186.466 101.376 186.819 109.987 187.095C109.724 188.602 108.961 189.525 105.844 191.743C117.11 210.807 127.483 221.67 143.506 240.929L183.804 191.743L188.324 189.419V184.384L193.973 178.574V171.603L200.752 168.505L205.648 156.111L214.311 151.076C212.222 148.08 212.281 145.94 214.311 142.943L214.446 142.882C218.685 140.963 221.13 139.857 227.492 140.619Z" fill="#949494"/>
<path d="M275.269 226.095L265.124 245.635L283.912 267.43L293.683 245.635C297.433 244.794 299.254 243.874 301.198 239.623V232.859L307.586 222.337C313.685 217.785 315.556 213.791 315.478 204.676L311.72 189.269C310.106 187.347 309.202 186.77 307.586 189.269V177.996C305.162 174.257 303.765 173.52 301.198 176.117V165.971C299.724 162.775 299.088 162.528 298.192 164.468L296.689 168.601L287.294 154.322C285.27 151.462 284.497 151.519 283.912 154.322L287.294 183.256L279.779 193.027V176.117C279.186 170.614 278.018 167.685 275.269 162.589C272.396 158.658 271.152 159.201 269.257 162.589C269.621 173.674 270.531 179.603 265.124 193.027C267.856 206.099 269.743 213.32 275.269 226.095Z" fill="#AF857A"/>
<path d="M213.642 243.753L156.524 292.603L163.664 294.482C163.203 302.659 166.761 307.625 172.683 314.398H260.239L273.015 299.367L299.695 289.597C284.536 267.508 276.657 257.613 262.869 241.122L224.54 282.457C219.283 283.075 216.831 282.099 213.642 277.572V243.753Z" fill="#C2EEFF"/>
</svg>
