<svg width="64" height="64" viewBox="0 0 64 64" fill="none" xmlns="http://www.w3.org/2000/svg">
<path d="M31.9993 5.33594C24.6473 5.33594 18.666 11.3173 18.666 18.6693V24.0026H15.9993C13.058 24.0026 10.666 26.3946 10.666 29.3359V53.3359C10.666 56.2773 13.058 58.6693 15.9993 58.6693H47.9994C50.9407 58.6693 53.3327 56.2773 53.3327 53.3359V29.3359C53.3327 26.3946 50.9407 24.0026 47.9994 24.0026H45.3327V18.6693C45.3327 11.3173 39.3513 5.33594 31.9993 5.33594ZM23.9993 18.6693C23.9993 14.2586 27.5887 10.6693 31.9993 10.6693C36.41 10.6693 39.9993 14.2586 39.9993 18.6693V24.0026H23.9993V18.6693ZM48.0047 53.3359H34.666V47.2613C36.2527 46.3359 37.3327 44.6346 37.3327 42.6693C37.3327 39.7279 34.9407 37.3359 31.9993 37.3359C29.058 37.3359 26.666 39.7279 26.666 42.6693C26.666 44.6319 27.746 46.3359 29.3327 47.2613V53.3359H15.9993V29.3359H47.9994L48.0047 53.3359Z" fill="black"/>
</svg>
