<svg width="78" height="78" viewBox="0 0 78 78" fill="none" xmlns="http://www.w3.org/2000/svg">
<path d="M68.25 35.75C68.25 53.7875 55.77 70.655 39 74.75C22.23 70.655 9.75 53.7875 9.75 35.75V16.25L39 3.25L68.25 16.25V35.75ZM39 68.25C51.1875 65 61.75 50.505 61.75 36.465V20.475L39 10.335L16.25 20.475V36.465C16.25 50.505 26.8125 65 39 68.25ZM48.1 35.75V30.875C48.1 26.325 43.55 22.75 39 22.75C34.45 22.75 29.9 26.325 29.9 30.875V35.75C27.95 35.75 26 37.7 26 39.65V51.025C26 53.3 27.95 55.25 29.9 55.25H47.775C50.05 55.25 52 53.3 52 51.35V39.975C52 37.7 50.05 35.75 48.1 35.75ZM43.875 35.75H34.125V30.875C34.125 28.275 36.4 26.65 39 26.65C41.6 26.65 43.875 28.275 43.875 30.875V35.75Z" fill="white"/>
</svg>
