<svg width="60" height="72" viewBox="0 0 60 72" fill="none" xmlns="http://www.w3.org/2000/svg">
<path d="M59.25 32.75C59.25 50.7875 46.77 67.655 30 71.75C13.23 67.655 0.75 50.7875 0.75 32.75V13.25L30 0.25L59.25 13.25V32.75ZM30 65.25C42.1875 62 52.75 47.505 52.75 33.465V17.475L30 7.335L7.25 17.475V33.465C7.25 47.505 17.8125 62 30 65.25ZM39.1 32.75V27.875C39.1 23.325 34.55 19.75 30 19.75C25.45 19.75 20.9 23.325 20.9 27.875V32.75C18.95 32.75 17 34.7 17 36.65V48.025C17 50.3 18.95 52.25 20.9 52.25H38.775C41.05 52.25 43 50.3 43 48.35V36.975C43 34.7 41.05 32.75 39.1 32.75ZM34.875 32.75H25.125V27.875C25.125 25.275 27.4 23.65 30 23.65C32.6 23.65 34.875 25.275 34.875 27.875V32.75Z" fill="white"/>
</svg>
