<svg width="28" height="28" viewBox="0 0 28 28" fill="none" xmlns="http://www.w3.org/2000/svg">
<path d="M10.0447 25.6668C9.47537 25.6635 8.92259 25.4751 8.46967 25.1302L6.05467 23.3335C5.49737 22.899 5.12759 22.2676 5.02127 21.5689C4.91496 20.8703 5.08018 20.1575 5.48301 19.5768C5.69614 19.2621 5.8316 18.9013 5.87824 18.5241C5.92489 18.1469 5.8814 17.764 5.75134 17.4068L5.68134 17.2202C5.59078 16.8969 5.42527 16.5995 5.19823 16.3522C4.9712 16.1049 4.68904 15.9146 4.37467 15.7968H4.18801C3.50652 15.5677 2.94295 15.0789 2.61967 14.4367C2.29638 13.7945 2.23949 13.0507 2.46134 12.3668L3.41801 9.3335C3.50607 8.98205 3.66821 8.65348 3.89356 8.36978C4.11891 8.08608 4.40227 7.8538 4.72467 7.6885C5.02492 7.5338 5.35343 7.44163 5.69032 7.41756C6.02722 7.3935 6.36549 7.43804 6.68467 7.5485C7.03221 7.66546 7.40304 7.69577 7.76496 7.63681C8.12687 7.57785 8.46891 7.43139 8.76134 7.21016L8.91301 7.0935C9.17772 6.88228 9.39166 6.61435 9.53905 6.30945C9.68645 6.00456 9.76355 5.67048 9.76467 5.33183V5.05183C9.76154 4.33798 10.0405 3.6518 10.5409 3.14268C11.0413 2.63355 11.7225 2.34272 12.4363 2.3335H15.4113C15.7586 2.33443 16.1023 2.40397 16.4227 2.53811C16.743 2.67225 17.0337 2.86836 17.278 3.11516C17.7917 3.63759 18.077 4.34252 18.0713 5.07516V5.40183C18.0654 5.72354 18.1352 6.04214 18.275 6.33193C18.4149 6.62172 18.6208 6.8746 18.8763 7.07016L19.0047 7.1635C19.2665 7.35985 19.572 7.48998 19.895 7.54279C20.2179 7.59561 20.5489 7.56955 20.8597 7.46683L21.2563 7.3385C21.5924 7.22709 21.9475 7.18452 22.3004 7.21331C22.6533 7.2421 22.9967 7.34167 23.3103 7.50608C23.6239 7.67048 23.9011 7.89636 24.1255 8.17024C24.3499 8.44411 24.5168 8.76038 24.6163 9.10016L25.538 12.0402C25.7513 12.7196 25.693 13.4553 25.3754 14.0927C25.0578 14.7301 24.5055 15.2196 23.8347 15.4585L23.6013 15.5402C23.2582 15.6525 22.9478 15.8475 22.6976 16.1079C22.4474 16.3683 22.265 16.6861 22.1663 17.0335C22.0735 17.3564 22.0515 17.6956 22.1018 18.0279C22.1521 18.3601 22.2736 18.6776 22.458 18.9585L22.7613 19.4018C23.1636 19.9857 23.3273 20.7013 23.2188 21.402C23.1104 22.1026 22.738 22.7353 22.178 23.1702L19.833 24.9785C19.5497 25.1952 19.225 25.3515 18.879 25.438C18.533 25.5245 18.173 25.5392 17.821 25.4813C17.4691 25.4233 17.1328 25.294 16.8327 25.1012C16.5327 24.9084 16.2753 24.6562 16.0763 24.3602L15.9363 24.1618C15.7453 23.8747 15.4845 23.6406 15.1785 23.4815C14.8725 23.3223 14.5312 23.2433 14.1863 23.2518C13.8573 23.2603 13.5349 23.3461 13.2451 23.5021C12.9553 23.6582 12.7062 23.8802 12.518 24.1502L12.2497 24.5352C12.0507 24.8333 11.7928 25.0875 11.4918 25.2821C11.1908 25.4767 10.8532 25.6077 10.4997 25.6668C10.3484 25.6816 10.196 25.6816 10.0447 25.6668ZM5.13301 13.5568C5.79181 13.7917 6.38627 14.178 6.86854 14.6846C7.35081 15.1912 7.70742 15.8039 7.90967 16.4735V16.6135C8.1616 17.3096 8.24432 18.0556 8.151 18.7899C8.05769 19.5243 7.79101 20.2259 7.37301 20.8368C7.29922 20.9183 7.25837 21.0244 7.25837 21.1343C7.25837 21.2443 7.29922 21.3503 7.37301 21.4318L9.88134 23.3335C9.91407 23.3592 9.95191 23.3776 9.99234 23.3875C10.0328 23.3973 10.0748 23.3984 10.1157 23.3907C10.1566 23.383 10.1954 23.3666 10.2294 23.3426C10.2634 23.3187 10.2919 23.2877 10.313 23.2518L10.5813 22.8668C10.986 22.2821 11.5265 21.8041 12.1564 21.474C12.7863 21.1439 13.4869 20.9715 14.198 20.9715C14.9092 20.9715 15.6097 21.1439 16.2396 21.474C16.8695 21.8041 17.41 22.2821 17.8147 22.8668L17.9547 23.0768C18.0048 23.148 18.0797 23.1979 18.1647 23.2168C18.2036 23.2226 18.2434 23.2204 18.2815 23.2103C18.3196 23.2003 18.3552 23.1827 18.3863 23.1585L20.7897 21.3385C20.8738 21.2717 20.9292 21.1753 20.9443 21.0689C20.9595 20.9626 20.9334 20.8545 20.8713 20.7668L20.568 20.3235C20.1728 19.7472 19.912 19.0894 19.805 18.3988C19.698 17.7082 19.7474 17.0024 19.9497 16.3335C20.1547 15.6304 20.5256 14.9869 21.0311 14.457C21.5366 13.9271 22.162 13.5264 22.8547 13.2885L23.088 13.2068C23.1853 13.1679 23.2631 13.092 23.3047 12.9959C23.3462 12.8997 23.348 12.791 23.3097 12.6935L22.3997 9.7885C22.3778 9.73767 22.3459 9.69181 22.3058 9.6537C22.2657 9.6156 22.2182 9.58604 22.1663 9.56683C22.132 9.54941 22.094 9.54033 22.0555 9.54033C22.017 9.54033 21.979 9.54941 21.9447 9.56683L21.548 9.69516C20.877 9.91662 20.1622 9.9718 19.4652 9.85597C18.7681 9.74013 18.1097 9.45674 17.5463 9.03016L17.4997 8.92516C16.9591 8.5158 16.5208 7.98671 16.2192 7.37943C15.9176 6.77215 15.7609 6.10322 15.7613 5.42516V5.0635C15.7635 4.95105 15.7216 4.84221 15.6447 4.76016C15.5776 4.6995 15.4901 4.6662 15.3997 4.66683H12.4363C12.3888 4.6698 12.3423 4.68212 12.2996 4.70309C12.2568 4.72407 12.2186 4.75328 12.1872 4.78905C12.1558 4.82482 12.1317 4.86645 12.1164 4.91155C12.1011 4.95664 12.0948 5.00431 12.098 5.05183V5.3435C12.0981 6.04004 11.9382 6.7273 11.6308 7.35232C11.3233 7.97734 10.8765 8.52342 10.3247 8.9485L10.173 9.06516C9.57769 9.51842 8.88002 9.81828 8.14149 9.93832C7.40295 10.0584 6.64623 9.99488 5.93801 9.75349C5.88502 9.73571 5.82767 9.73571 5.77467 9.75349C5.70883 9.79349 5.65925 9.85548 5.63467 9.9285L4.66634 12.9735C4.63259 13.0772 4.6405 13.19 4.6884 13.288C4.7363 13.3859 4.82043 13.4614 4.92301 13.4985L5.13301 13.5568Z" fill="#1D1D1D"/>
<path d="M14.0003 18.0832C13.1927 18.0832 12.4032 17.8437 11.7317 17.395C11.0602 16.9463 10.5369 16.3086 10.2278 15.5625C9.91876 14.8163 9.8379 13.9953 9.99545 13.2032C10.153 12.4111 10.5419 11.6836 11.113 11.1125C11.684 10.5414 12.4116 10.1525 13.2037 9.99497C13.9958 9.83741 14.8168 9.91827 15.563 10.2273C16.3091 10.5364 16.9468 11.0598 17.3955 11.7313C17.8442 12.4028 18.0837 13.1922 18.0837 13.9998C18.0837 15.0828 17.6535 16.1214 16.8877 16.8872C16.1219 17.653 15.0833 18.0832 14.0003 18.0832ZM14.0003 12.2498C13.6542 12.2498 13.3159 12.3525 13.0281 12.5448C12.7403 12.7371 12.516 13.0104 12.3835 13.3301C12.2511 13.6499 12.2164 14.0018 12.284 14.3412C12.3515 14.6807 12.5181 14.9925 12.7629 15.2373C13.0076 15.482 13.3195 15.6487 13.6589 15.7162C13.9984 15.7837 14.3503 15.7491 14.67 15.6166C14.9898 15.4842 15.2631 15.2599 15.4554 14.9721C15.6477 14.6843 15.7503 14.346 15.7503 13.9998C15.7503 13.5357 15.566 13.0906 15.2378 12.7624C14.9096 12.4342 14.4645 12.2498 14.0003 12.2498Z" fill="#1D1D1D"/>
</svg>
