<svg width="371" height="253" viewBox="0 0 371 253" fill="none" xmlns="http://www.w3.org/2000/svg">
<path d="M42.3223 17C42.3223 7.61117 49.9334 0 59.3223 0H311.863C321.251 0 328.863 7.61116 328.863 17V205.928H42.3223V17Z" fill="#5F5F74"/>
<path d="M42.3215 205.93H328.862L356.011 236.148C361.795 242.585 357.226 252.831 348.572 252.831H22.4927C13.8289 252.831 9.26434 242.564 15.0685 236.132L42.3215 205.93Z" fill="#77778D"/>
<rect x="47.084" y="8.0625" width="277.013" height="190.172" rx="9" fill="white"/>
<path d="M91.1746 106.048C87.2108 98.667 89.9141 89.2928 97.1963 85.1506L98.0088 84.6874L93.5818 78.0469L92.8718 78.4683C82.0131 84.9114 78.186 98.6784 84.162 109.814C84.9821 111.333 85.9427 112.738 87.021 113.991L87.5298 114.579L94.1854 110.027L93.4906 109.287C92.587 108.318 91.8087 107.229 91.1746 106.048Z" fill="url(#paint0_linear_201_1754)"/>
<path d="M97.5726 107.8L105.075 102.842L103.902 102.128C103.363 101.802 101.605 100.59 101.605 98.8174C101.601 97.1126 102.899 95.8977 104.114 95.332L105.056 94.8953L100.249 88.0156L99.5583 88.4181C98.666 88.9344 97.8383 89.5761 97.1018 90.3203C94.8275 92.5983 93.5784 95.6243 93.586 98.8325C93.5822 100.685 94.015 102.534 94.8351 104.175C95.4084 105.336 96.1602 106.388 97.0714 107.303L97.5726 107.8Z" fill="url(#paint1_linear_201_1754)"/>
<path fill-rule="evenodd" clip-rule="evenodd" d="M127.328 106.918C127.328 95.4667 136.615 86.1875 148.066 86.1875C159.509 86.1875 168.796 95.4667 168.796 106.918C168.796 118.369 159.513 127.648 148.066 127.648C136.615 127.648 127.328 118.369 127.328 106.918ZM135.837 106.918C135.837 113.672 141.312 119.147 148.066 119.147C154.817 119.147 160.288 113.668 160.288 106.918C160.288 100.163 154.817 94.6884 148.066 94.6884C141.308 94.6884 135.837 100.167 135.837 106.918ZM117.733 94.837L118.439 86.8828L103.924 86.8904C103.032 86.8942 102.155 87.0005 101.304 87.1979L101.221 87.2169L106.548 94.8408L117.733 94.837ZM289.287 90.1631C286.724 88.2002 283.375 87.1257 280.091 87.1902C275.69 87.1902 272.159 88.5685 269.714 91.2072L269.524 88.8912L269.365 87.8547H261.57V126.669H269.897V105.191C269.897 99.4803 273.849 95.4406 279.495 95.3684C281.685 95.3684 283.398 95.9076 285.216 97.1643L286.264 97.8895L290.042 90.7402L289.287 90.1631ZM180.298 91.863C183.362 88.8332 187.291 87.25 191.817 87.25C202.099 87.25 209.005 94.5132 209.009 105.33V126.66H200.683V105.402C200.683 98.9743 196.954 95.1358 190.712 95.1358C184.854 95.2004 180.594 99.7337 180.594 105.919V126.656H172.34V87.8423L173.467 87.7664H180.089L180.298 91.863ZM245.584 92.2826L245.633 87.8442H253.796V126.658H245.565L245.47 122.345C241.958 126.123 236.992 127.543 233.058 127.543C221.372 127.543 213.209 119.198 213.209 107.249C213.209 101.406 215.145 96.3983 218.805 92.7648C222.427 89.1693 227.534 87.1798 233.142 87.2519C238.066 87.2519 242.569 89.1237 245.584 92.2826ZM242.421 115.929C244.369 113.7 245.443 110.689 245.443 107.451C245.443 101.664 241.825 95.4453 233.897 95.2175L233.829 95.2858H233.358C226.312 95.2858 221.391 100.298 221.391 107.473C221.391 114.581 226.425 119.737 233.358 119.737C237.106 119.737 240.242 118.419 242.421 115.929ZM123.934 114.715C123.934 117.9 122.693 120.892 120.445 123.143C118.216 125.383 115.243 126.633 112.081 126.648L94.9688 126.659L95.6749 118.697L112.009 118.686C114.211 118.675 115.976 116.894 115.972 114.715C115.972 113.526 115.441 112.41 114.514 111.654C113.812 111.074 112.92 110.755 112.001 110.755L104.054 110.766C102.103 110.766 100.182 110.303 98.4883 109.418L98.2909 109.312L108.159 102.789L112.001 102.793C114.7 102.797 117.237 103.674 119.336 105.318C119.693 105.595 120.061 105.921 120.426 106.278C121.876 107.721 122.932 109.513 123.482 111.461C123.778 112.52 123.934 113.617 123.934 114.715Z" fill="url(#paint2_linear_201_1754)"/>
<path d="M259.453 198.443L250.023 198.246L257.036 184.04C257.619 182.894 257.81 182.238 257.739 181.01L257.193 176.504L249.887 166.493C246.285 161.349 245.095 158.163 244.274 152.022C244.259 150.774 244.403 150.12 244.817 148.989C244.991 148.209 245.262 147.915 246.283 147.715C247.119 147.704 247.447 147.903 247.866 148.473L250.784 154.188C255.657 159.17 258.852 161.172 264.969 164.053C266.487 164.703 267.095 165.257 268.12 166.294C268.878 167.302 268.565 167.931 268.063 169.047L268.542 169.057L270.011 167.638C270.825 166.93 271.472 166.963 273.048 167.702C274.623 168.44 277.637 169.972 277.637 169.972C283.73 172.669 287.212 172.697 293.4 173.202C293.4 173.202 299.006 172.739 299.489 172.604C299.971 172.469 300.171 172.844 300.592 173.352C300.703 174.248 300.506 174.674 299.434 175.213C288.705 179.751 282.174 181.132 269.105 180.378C266.037 181.339 264.47 182.101 262.304 184.44C259.443 190.219 259.288 193.202 259.453 198.443Z" fill="#2CA3D1"/>
<path d="M262.891 177.076C262.859 176.848 255.888 189.752 252.235 198.294L257.615 198.406C256.826 198.367 262.924 177.304 262.891 177.076Z" fill="#C2EEFF"/>
<defs>
<linearGradient id="paint0_linear_201_1754" x1="89.6772" y1="78.0469" x2="89.6772" y2="114.579" gradientUnits="userSpaceOnUse">
<stop stop-color="#BE65E6" stop-opacity="0.46"/>
<stop offset="1" stop-color="#BE65E6"/>
</linearGradient>
<linearGradient id="paint1_linear_201_1754" x1="99.3304" y1="88.0156" x2="97.2924" y2="131.204" gradientUnits="userSpaceOnUse">
<stop offset="0.0104167" stop-color="#BE65E6"/>
<stop offset="1" stop-color="#BE65E6" stop-opacity="0.46"/>
</linearGradient>
<linearGradient id="paint2_linear_201_1754" x1="94.9688" y1="104.436" x2="300.726" y2="102.676" gradientUnits="userSpaceOnUse">
<stop stop-color="#2CA3D1"/>
<stop offset="0.979167" stop-color="#2CA3D1" stop-opacity="0.46"/>
</linearGradient>
</defs>
</svg>
