<svg width="149" height="37" viewBox="0 0 149 37" fill="none" xmlns="http://www.w3.org/2000/svg">
<path d="M7.01747 20.8873C4.18747 15.3816 6.11751 8.38892 11.3167 5.29902L11.8968 4.95349L8.73608 0L8.22916 0.314376C0.476478 5.12059 -2.25594 15.3901 2.01075 23.6968C2.59627 24.8297 3.28208 25.8776 4.05193 26.8122L4.41517 27.2512L9.16708 23.8554L8.67101 23.3032C8.02586 22.581 7.47016 21.7681 7.01747 20.8873Z" fill="url(#paint0_linear_329_1332)"/>
<path d="M11.5855 22.1931L16.9419 18.4942L16.1043 17.9618C15.7194 17.7182 14.4643 16.8148 14.4643 15.4921C14.4616 14.2205 15.3887 13.3142 16.2561 12.8922L16.9284 12.5665L13.4966 7.43457L13.0033 7.73478C12.3662 8.11996 11.7753 8.5986 11.2494 9.15371C9.62569 10.853 8.73386 13.1103 8.73928 15.5034C8.73657 16.8856 9.0456 18.2648 9.63111 19.4883C10.0404 20.355 10.5772 21.1395 11.2277 21.822L11.5855 22.1931Z" fill="url(#paint1_linear_329_1332)"/>
<path fill-rule="evenodd" clip-rule="evenodd" d="M32.8291 21.5345C32.8291 12.9926 39.4596 6.0708 47.6351 6.0708C55.8052 6.0708 62.4357 12.9926 62.4357 21.5345C62.4357 30.0764 55.808 36.9982 47.6351 36.9982C39.4596 36.9982 32.8291 30.0764 32.8291 21.5345ZM38.9038 21.5345C38.9038 26.5729 42.8127 30.657 47.6351 30.657C52.4548 30.657 56.3609 26.5701 56.3609 21.5345C56.3609 16.496 52.4548 12.4121 47.6351 12.4121C42.81 12.4121 38.9038 16.4989 38.9038 21.5345ZM25.9794 12.5286L26.4836 6.5952L16.1205 6.60086C15.4834 6.60369 14.8573 6.68299 14.2501 6.83026L14.1904 6.84443L17.9936 12.5314L25.9794 12.5286ZM148.461 9.02806C146.631 7.56382 144.241 6.76232 141.896 6.81047C138.754 6.81047 136.233 7.83855 134.487 9.80691L134.352 8.07928L134.238 7.3061H128.673V36.2595H134.617V20.2378C134.617 15.9782 137.439 12.9648 141.47 12.911C143.034 12.911 144.257 13.3132 145.555 14.2506L146.303 14.7915L149.001 9.45855L148.461 9.02806ZM117.26 10.6189L117.295 7.30811H123.123V36.2615H117.246L117.179 33.0441C114.671 35.8622 111.126 36.9214 108.317 36.9214C99.9736 36.9214 94.1455 30.6963 94.1455 21.7834C94.1455 17.4247 95.528 13.689 98.1411 10.9786C100.727 8.29655 104.373 6.81248 108.377 6.8663C111.893 6.8663 115.108 8.26256 117.26 10.6189ZM115.002 28.2578C116.392 26.5953 117.16 24.3493 117.16 21.9335C117.16 17.6173 114.576 12.9781 108.916 12.8082L108.867 12.8592H108.531C103.5 12.8592 99.9871 16.5977 99.9871 21.9505C99.9871 27.2523 103.582 31.0984 108.531 31.0984C111.207 31.0984 113.446 30.1157 115.002 28.2578ZM70.6465 10.3082C72.8341 8.04811 75.6397 6.86709 78.8709 6.86709C86.2115 6.86709 91.1424 12.2851 91.1451 20.3539V36.2651H85.2004V20.4077C85.2004 15.6129 82.5385 12.7495 78.0821 12.7495C73.8994 12.7977 70.858 16.1793 70.858 20.7929V36.2623H64.9648V7.30891L65.7699 7.25227H70.4974L70.6465 10.3082ZM30.4057 27.3486C30.4057 29.7248 29.5193 31.9566 27.9146 33.6361C26.3234 35.307 24.2009 36.2388 21.9428 36.2501L9.72559 36.2587L10.2298 30.3196L21.8913 30.3111C23.4636 30.3026 24.724 28.9743 24.7213 27.3486C24.7213 26.4621 24.3418 25.6295 23.6804 25.0659C23.1789 24.6325 22.5419 24.3946 21.8859 24.3946L16.2124 24.4031C14.819 24.4031 13.4474 24.0576 12.2384 23.3977L12.0975 23.3184L19.1427 18.4527L21.8859 18.4556C23.8132 18.4584 25.624 19.1126 27.123 20.339C27.3778 20.5457 27.6408 20.7893 27.901 21.0555C28.9365 22.1317 29.6901 23.4685 30.0832 24.9214C30.2946 25.7116 30.4057 26.5301 30.4057 27.3486Z" fill="url(#paint2_linear_329_1332)"/>
<defs>
<linearGradient id="paint0_linear_329_1332" x1="5.94839" y1="0" x2="5.94839" y2="27.2512" gradientUnits="userSpaceOnUse">
<stop stop-color="#2CA3D1" stop-opacity="0.46"/>
<stop offset="1" stop-color="#2CA3D1"/>
</linearGradient>
<linearGradient id="paint1_linear_329_1332" x1="12.8406" y1="7.43457" x2="11.2525" y2="39.6441" gradientUnits="userSpaceOnUse">
<stop offset="0.0104167" stop-color="#2CA3D1"/>
<stop offset="1" stop-color="#2CA3D1" stop-opacity="0.46"/>
</linearGradient>
<linearGradient id="paint2_linear_329_1332" x1="9.72559" y1="19.6832" x2="156.629" y2="18.4804" gradientUnits="userSpaceOnUse">
<stop stop-color="#2CA3D1"/>
<stop offset="0.979167" stop-color="#2CA3D1" stop-opacity="0.46"/>
</linearGradient>
</defs>
</svg>
