<svg width="26" height="26" viewBox="0 0 26 26" fill="none" xmlns="http://www.w3.org/2000/svg">
<path fill-rule="evenodd" clip-rule="evenodd" d="M7.25562 19.6963C11.5337 19.0713 14.4794 19.125 18.7631 19.7181C19.0734 19.7631 19.3568 19.9188 19.5612 20.1565C19.7656 20.3942 19.877 20.6978 19.875 21.0113C19.875 21.3113 19.7719 21.6025 19.5856 21.83C19.261 22.2266 18.9284 22.6167 18.5881 23H20.2387C20.3425 22.8763 20.4469 22.75 20.5525 22.6219C20.9232 22.1673 21.1255 21.5985 21.125 21.0119C21.125 19.7463 20.2012 18.6556 18.9344 18.4806C14.5494 17.8738 11.4844 17.8156 7.075 18.46C5.795 18.6469 4.875 19.7544 4.875 21.0288C4.875 21.5944 5.05938 22.1538 5.40875 22.6069C5.51187 22.7406 5.61375 22.8719 5.715 23.0006H7.32562C7.00901 22.6216 6.7002 22.2361 6.39937 21.8444C6.2206 21.6099 6.12416 21.323 6.125 21.0281C6.125 20.355 6.60875 19.7906 7.25562 19.6963ZM13 13.625C13.4925 13.625 13.9801 13.528 14.4351 13.3395C14.89 13.1511 15.3034 12.8749 15.6516 12.5267C15.9999 12.1784 16.2761 11.765 16.4645 11.3101C16.653 10.8551 16.75 10.3675 16.75 9.875C16.75 9.38254 16.653 8.89491 16.4645 8.43994C16.2761 7.98497 15.9999 7.57157 15.6516 7.22335C15.3034 6.87513 14.89 6.59891 14.4351 6.41045C13.9801 6.222 13.4925 6.125 13 6.125C12.0054 6.125 11.0516 6.52009 10.3483 7.22335C9.64509 7.92661 9.25 8.88044 9.25 9.875C9.25 10.8696 9.64509 11.8234 10.3483 12.5267C11.0516 13.2299 12.0054 13.625 13 13.625ZM13 14.875C14.3261 14.875 15.5979 14.3482 16.5355 13.4105C17.4732 12.4729 18 11.2011 18 9.875C18 8.54892 17.4732 7.27715 16.5355 6.33947C15.5979 5.40178 14.3261 4.875 13 4.875C11.6739 4.875 10.4021 5.40178 9.46447 6.33947C8.52678 7.27715 8 8.54892 8 9.875C8 11.2011 8.52678 12.4729 9.46447 13.4105C10.4021 14.3482 11.6739 14.875 13 14.875Z" fill="#949494"/>
<path fill-rule="evenodd" clip-rule="evenodd" d="M13 24.25C19.2131 24.25 24.25 19.2131 24.25 13C24.25 6.78687 19.2131 1.75 13 1.75C6.78687 1.75 1.75 6.78687 1.75 13C1.75 19.2131 6.78687 24.25 13 24.25ZM13 25.5C19.9037 25.5 25.5 19.9037 25.5 13C25.5 6.09625 19.9037 0.5 13 0.5C6.09625 0.5 0.5 6.09625 0.5 13C0.5 19.9037 6.09625 25.5 13 25.5Z" fill="#949494"/>
</svg>
