<svg width="53" height="53" viewBox="0 0 53 53" fill="none" xmlns="http://www.w3.org/2000/svg">
<circle cx="26.5" cy="26.5" r="26.5" fill="#BE65E6"/>
<path d="M19.6591 20.964C19.7525 19.0973 20.4058 17.66 21.6191 16.652C22.8511 15.6253 24.4658 15.112 26.4631 15.112C27.8258 15.112 28.9925 15.3547 29.9631 15.84C30.9338 16.3067 31.6618 16.9507 32.1471 17.772C32.6511 18.5747 32.9031 19.4893 32.9031 20.516C32.9031 21.692 32.5951 22.6907 31.9791 23.512C31.3818 24.3147 30.6631 24.856 29.8231 25.136V25.248C30.9058 25.584 31.7458 26.1813 32.3431 27.04C32.9591 27.8987 33.2671 29 33.2671 30.344C33.2671 31.464 33.0058 32.4627 32.4831 33.34C31.9791 34.2173 31.2231 34.908 30.2151 35.412C29.2258 35.8973 28.0311 36.14 26.6311 36.14C24.5218 36.14 22.8045 35.608 21.4791 34.544C20.1538 33.48 19.4538 31.912 19.3791 29.84H23.1871C23.2245 30.7547 23.5325 31.492 24.1111 32.052C24.7085 32.5933 25.5205 32.864 26.5471 32.864C27.4991 32.864 28.2271 32.6027 28.7311 32.08C29.2538 31.5387 29.5151 30.848 29.5151 30.008C29.5151 28.888 29.1605 28.0853 28.4511 27.6C27.7418 27.1147 26.6405 26.872 25.1471 26.872H24.3351V23.652H25.1471C27.7978 23.652 29.1231 22.7653 29.1231 20.992C29.1231 20.1893 28.8805 19.564 28.3951 19.116C27.9285 18.668 27.2471 18.444 26.3511 18.444C25.4738 18.444 24.7925 18.6867 24.3071 19.172C23.8405 19.6387 23.5698 20.236 23.4951 20.964H19.6591Z" fill="white"/>
</svg>
