<svg width="53" height="53" viewBox="0 0 53 53" fill="none" xmlns="http://www.w3.org/2000/svg">
<circle cx="26.5" cy="26.5" r="26.5" fill="#BE65E6"/>
<path d="M21.1769 31.576C22.9689 30.0827 24.3969 28.8413 25.4609 27.852C26.5249 26.844 27.4116 25.7987 28.1209 24.716C28.8303 23.6333 29.1849 22.5693 29.1849 21.524C29.1849 20.572 28.9609 19.8253 28.5129 19.284C28.0649 18.7427 27.3743 18.472 26.4409 18.472C25.5076 18.472 24.7889 18.7893 24.2849 19.424C23.7809 20.04 23.5196 20.8893 23.5009 21.972H19.6929C19.7676 19.732 20.4303 18.0333 21.6809 16.876C22.9503 15.7187 24.5556 15.14 26.4969 15.14C28.6249 15.14 30.2583 15.7093 31.3969 16.848C32.5356 17.968 33.1049 19.452 33.1049 21.3C33.1049 22.756 32.7129 24.1467 31.9289 25.472C31.1449 26.7973 30.2489 27.9547 29.2409 28.944C28.2329 29.9147 26.9169 31.0907 25.2929 32.472H33.5529V35.72H19.7209V32.808L21.1769 31.576Z" fill="white"/>
</svg>
